<svg width="1757" height="986" viewBox="0 0 1757 986" fill="none" xmlns="http://www.w3.org/2000/svg">
<path d="M514.266 295.5C489.374 299.508 462.34 303 427.281 303C375.009 303 356.722 206 352.242 206C347.762 206 347.388 244 336.935 230C326.482 216 313.042 116 302.589 116C292.136 116 291.389 280 274.963 280H16.619" stroke="black" stroke-width="5"/>
<path d="M514.266 959.5C489.374 963.508 462.34 967 427.281 967C375.009 967 356.722 870 352.242 870C347.762 870 347.388 908 336.935 894C326.482 880 313.042 780 302.589 780C292.136 780 291.389 944 274.963 944H16.619" stroke="black" stroke-width="5"/>
<path d="M513.343 295.478C529.757 295.478 530.503 131 540.948 131C551.393 131 564.823 231.292 575.268 245.332C585.713 259.373 589.071 214.743 593.547 214.743C598.024 214.743 612.567 303 664.798 303C692.206 303 714.126 300.764 734.93 297.985" stroke="black" stroke-width="5"/>
<path d="M513.343 959.522C529.757 959.522 530.503 796 540.948 796C551.393 796 564.823 895.708 575.268 909.668C585.713 923.627 589.071 879.257 593.547 879.257C598.024 879.257 612.567 967 664.798 967C692.206 967 714.126 964.777 734.93 962.015" stroke="black" stroke-width="5"/>
<path d="M734.007 298C750.413 298 751.159 134 761.6 134C772.04 134 785.464 234 795.904 248C806.345 262 806.718 224 811.192 224C815.667 224 830.95 303 883.158 303C977.123 303 1024.11 280 1080.04 280H1197.49" stroke="black" stroke-width="5"/>
<path d="M734.007 962C750.413 962 751.159 798 761.6 798C772.04 798 785.464 898 795.904 912C806.345 926 806.718 888 811.192 888C815.667 888 830.95 967 883.158 967C977.123 967 1024.11 944 1080.04 944H1197.49" stroke="black" stroke-width="5"/>
<path d="M1196.57 280C1212.99 280 1213.73 116 1224.18 116C1234.63 116 1248.06 216 1258.51 230C1268.96 244 1269.33 206 1273.81 206C1278.28 206 1296.56 303 1348.8 303C1442.83 303 1489.84 280 1545.81 280H1757" stroke="black" stroke-width="5"/>
<path d="M1196.57 944C1212.99 944 1213.73 780 1224.18 780C1234.63 780 1248.06 880 1258.51 894C1268.96 908 1269.33 870 1273.81 870C1278.28 870 1296.56 967 1348.8 967C1442.83 967 1489.84 944 1545.81 944H1757" stroke="black" stroke-width="5"/>
<rect x="284.37" y="103" width="407.166" height="219" fill="#FF0000" fill-opacity="0.17"/>
<rect x="284.37" y="767" width="407.166" height="219" fill="#FF0000" fill-opacity="0.17"/>
<rect x="525.346" y="767" width="407.166" height="219" fill="#FF0000" fill-opacity="0.17"/>
<rect x="746.933" y="103" width="407.166" height="219" fill="#FF0000" fill-opacity="0.17"/>
<rect x="746.933" y="767" width="407.166" height="219" fill="#FF0000" fill-opacity="0.17"/>
<rect x="1207.65" y="103" width="407.166" height="219" fill="#FF0000" fill-opacity="0.17"/>
<rect x="1207.65" y="767" width="407.166" height="219" fill="#FF0000" fill-opacity="0.17"/>
<path d="M514.266 169L593.668 275" stroke="#FF1717" stroke-opacity="0.66" stroke-width="12" stroke-linecap="round"/>
<path d="M514.266 821L593.668 927" stroke="#FF1717" stroke-opacity="0.66" stroke-width="12" stroke-linecap="round"/>
<path d="M734.93 821L814.332 927" stroke="#FF1717" stroke-opacity="0.66" stroke-width="12" stroke-linecap="round"/>
<path d="M593.668 169L513.343 275" stroke="#FF1717" stroke-opacity="0.66" stroke-width="12" stroke-linecap="round"/>
<path d="M593.668 821L513.343 927" stroke="#FF1717" stroke-opacity="0.66" stroke-width="12" stroke-linecap="round"/>
<path d="M814.332 821L734.007 927" stroke="#FF1717" stroke-opacity="0.66" stroke-width="12" stroke-linecap="round"/>
<path d="M4.1392 46V11.8182H15.6889C18.3594 11.8182 20.5514 12.2744 22.2649 13.1868C23.9785 14.0881 25.2469 15.3287 26.0703 16.9087C26.8937 18.4888 27.3054 20.2857 27.3054 22.2997C27.3054 24.3137 26.8937 26.0995 26.0703 27.6573C25.2469 29.2151 23.984 30.439 22.2816 31.3292C20.5792 32.2082 18.4039 32.6477 15.7557 32.6477H6.40909V28.9091H15.6222C17.447 28.9091 18.9157 28.642 20.0284 28.108C21.1522 27.5739 21.9645 26.8172 22.4652 25.8381C22.977 24.8478 23.233 23.6683 23.233 22.2997C23.233 20.9311 22.977 19.735 22.4652 18.7113C21.9534 17.6876 21.1355 16.8976 20.0117 16.3413C18.8879 15.7738 17.4025 15.4901 15.5554 15.4901H8.27841V46H4.1392ZM20.2287 30.6449L28.6406 46H23.8338L15.5554 30.6449H20.2287ZM44.1418 46.5341C41.6716 46.5341 39.5408 45.9889 37.7494 44.8984C35.9691 43.7969 34.5949 42.2614 33.6269 40.2919C32.67 38.3113 32.1915 36.008 32.1915 33.3821C32.1915 30.7562 32.67 28.4418 33.6269 26.4389C34.5949 24.425 35.9413 22.8561 37.6659 21.7322C39.4017 20.5973 41.4268 20.0298 43.7412 20.0298C45.0764 20.0298 46.395 20.2524 47.6968 20.6974C48.9987 21.1425 50.1837 21.8658 51.2519 22.8672C52.32 23.8575 53.1713 25.1705 53.8055 26.8061C54.4397 28.4418 54.7568 30.4557 54.7568 32.848V34.517H34.9955V31.1122H50.7512C50.7512 29.6657 50.4619 28.375 49.8833 27.2401C49.3158 26.1051 48.5035 25.2094 47.4465 24.5529C46.4005 23.8964 45.1655 23.5682 43.7412 23.5682C42.1723 23.5682 40.8148 23.9576 39.6688 24.7365C38.5338 25.5043 37.6604 26.5057 37.0484 27.7408C36.4364 28.9759 36.1304 30.3 36.1304 31.7131V33.983C36.1304 35.919 36.4642 37.5603 37.1318 38.9066C37.8106 40.2418 38.7508 41.2599 39.9525 41.9609C41.1542 42.6508 42.5506 42.9957 44.1418 42.9957C45.1766 42.9957 46.1112 42.8511 46.9458 42.5618C47.7914 42.2614 48.5202 41.8163 49.1322 41.2266C49.7442 40.6257 50.2171 39.8802 50.5509 38.9901L54.3563 40.0582C53.9557 41.349 53.2825 42.4839 52.3367 43.4631C51.391 44.4311 50.2226 45.1877 48.8318 45.733C47.4409 46.267 45.8776 46.5341 44.1418 46.5341ZM71.0967 56.1477C69.194 56.1477 67.5583 55.9029 66.1897 55.4134C64.8211 54.9349 63.6806 54.3007 62.7682 53.5107C61.8669 52.7318 61.1492 51.8973 60.6151 51.0071L63.7529 48.804C64.109 49.2713 64.5596 49.8054 65.1048 50.4062C65.6501 51.0182 66.3956 51.5468 67.3414 51.9918C68.2983 52.448 69.55 52.6761 71.0967 52.6761C73.1663 52.6761 74.8743 52.1754 76.2206 51.174C77.567 50.1726 78.2401 48.6037 78.2401 46.4673V41.2599H77.9063C77.617 41.7273 77.2053 42.3059 76.6713 42.9957C76.1483 43.6745 75.3917 44.2809 74.4014 44.815C73.4222 45.3379 72.0981 45.5994 70.4291 45.5994C68.3595 45.5994 66.5013 45.1098 64.8545 44.1307C63.2188 43.1515 61.9226 41.7273 60.9656 39.858C60.0199 37.9886 59.547 35.7187 59.547 33.0483C59.547 30.4223 60.0087 28.1358 60.9323 26.1886C61.8558 24.2302 63.141 22.717 64.7877 21.6488C66.4345 20.5695 68.3372 20.0298 70.4958 20.0298C72.1649 20.0298 73.489 20.308 74.4681 20.8643C75.4584 21.4096 76.2151 22.0327 76.738 22.7337C77.2721 23.4235 77.6838 23.991 77.9731 24.4361H78.3737V20.3636H82.1791V46.7344C82.1791 48.9375 81.6784 50.7289 80.6769 52.1087C79.6866 53.4995 78.3514 54.5176 76.6713 55.163C75.0022 55.8195 73.144 56.1477 71.0967 56.1477ZM70.9632 42.0611C72.5432 42.0611 73.8784 41.6995 74.9688 40.9762C76.0593 40.253 76.8882 39.2126 77.4557 37.8551C78.0232 36.4976 78.3069 34.8731 78.3069 32.9815C78.3069 31.1345 78.0287 29.5044 77.4724 28.0913C76.916 26.6781 76.0927 25.571 75.0022 24.7699C73.9118 23.9687 72.5654 23.5682 70.9632 23.5682C69.2941 23.5682 67.9033 23.991 66.7906 24.8366C65.689 25.6823 64.8601 26.8172 64.3037 28.2415C63.7585 29.6657 63.4859 31.2457 63.4859 32.9815C63.4859 34.7618 63.7641 36.3363 64.3204 37.7049C64.8879 39.0624 65.7224 40.1306 66.824 40.9094C67.9366 41.6772 69.3164 42.0611 70.9632 42.0611ZM105.546 35.5185V20.3636H109.484V46H105.546V41.6605H105.278C104.678 42.9624 103.743 44.0695 102.475 44.9819C101.206 45.8832 99.6038 46.3338 97.6677 46.3338C96.0654 46.3338 94.6412 45.9833 93.395 45.2823C92.1488 44.5702 91.1696 43.502 90.4575 42.0778C89.7454 40.6424 89.3893 38.8343 89.3893 36.6534V20.3636H93.3282V36.3864C93.3282 38.2557 93.8512 39.7467 94.8971 40.8594C95.9542 41.9721 97.3005 42.5284 98.9362 42.5284C99.9153 42.5284 100.911 42.2781 101.924 41.7773C102.947 41.2766 103.804 40.5089 104.494 39.4741C105.195 38.4393 105.546 37.1207 105.546 35.5185ZM120.638 11.8182V46H116.699V11.8182H120.638ZM135.396 46.6009C133.772 46.6009 132.297 46.2949 130.973 45.6829C129.649 45.0598 128.598 44.1641 127.819 42.9957C127.04 41.8163 126.65 40.392 126.65 38.723C126.65 37.2543 126.94 36.0637 127.518 35.1513C128.097 34.2277 128.87 33.5045 129.838 32.9815C130.806 32.4586 131.875 32.0691 133.043 31.8132C134.222 31.5462 135.407 31.3348 136.598 31.179C138.156 30.9787 139.419 30.8285 140.387 30.7283C141.366 30.6171 142.078 30.4335 142.523 30.1776C142.979 29.9216 143.207 29.4766 143.207 28.8423V28.7088C143.207 27.062 142.757 25.7824 141.855 24.87C140.965 23.9576 139.613 23.5014 137.8 23.5014C135.919 23.5014 134.445 23.9131 133.377 24.7365C132.309 25.5599 131.557 26.4389 131.123 27.3736L127.385 26.0384C128.052 24.4806 128.943 23.2678 130.055 22.3999C131.179 21.5208 132.403 20.9089 133.727 20.5639C135.062 20.2079 136.375 20.0298 137.666 20.0298C138.489 20.0298 139.435 20.13 140.503 20.3303C141.583 20.5194 142.623 20.9144 143.625 21.5153C144.637 22.1161 145.477 23.023 146.145 24.2358C146.812 25.4486 147.146 27.0732 147.146 29.1094V46H143.207V42.5284H143.007C142.74 43.0848 142.295 43.68 141.672 44.3143C141.049 44.9485 140.22 45.4882 139.185 45.9332C138.15 46.3783 136.887 46.6009 135.396 46.6009ZM135.997 43.0625C137.555 43.0625 138.868 42.7565 139.936 42.1445C141.015 41.5326 141.828 40.7425 142.373 39.7745C142.929 38.8065 143.207 37.7884 143.207 36.7202V33.1151C143.04 33.3153 142.673 33.4989 142.106 33.6658C141.549 33.8216 140.904 33.9607 140.17 34.0831C139.446 34.1944 138.74 34.2945 138.05 34.3835C137.371 34.4614 136.82 34.5282 136.398 34.5838C135.374 34.7173 134.417 34.9343 133.527 35.2347C132.648 35.524 131.936 35.9635 131.391 36.5533C130.856 37.1319 130.589 37.9219 130.589 38.9233C130.589 40.2919 131.096 41.3267 132.108 42.0277C133.132 42.7176 134.428 43.0625 135.997 43.0625ZM154.336 46V20.3636H158.141V24.2358H158.408C158.875 22.9673 159.721 21.9381 160.945 21.1481C162.169 20.3581 163.549 19.9631 165.084 19.9631C165.373 19.9631 165.735 19.9686 166.169 19.9798C166.603 19.9909 166.931 20.0076 167.154 20.0298V24.0355C167.02 24.0021 166.714 23.9521 166.236 23.8853C165.768 23.8074 165.273 23.7685 164.75 23.7685C163.504 23.7685 162.391 24.0299 161.412 24.5529C160.444 25.0647 159.676 25.7769 159.109 26.6893C158.553 27.5906 158.275 28.6198 158.275 29.777V46H154.336ZM183.706 15.4901V11.8182H209.343V15.4901H198.594V46H194.455V15.4901H183.706ZM215.197 46V20.3636H219.136V46H215.197ZM217.2 16.0909C216.432 16.0909 215.77 15.8294 215.214 15.3065C214.668 14.7835 214.396 14.1548 214.396 13.4205C214.396 12.6861 214.668 12.0574 215.214 11.5344C215.77 11.0115 216.432 10.75 217.2 10.75C217.968 10.75 218.624 11.0115 219.169 11.5344C219.726 12.0574 220.004 12.6861 220.004 13.4205C220.004 14.1548 219.726 14.7835 219.169 15.3065C218.624 15.8294 217.968 16.0909 217.2 16.0909ZM226.35 46V20.3636H230.156V24.3693H230.489C231.024 23.0007 231.886 21.9381 233.076 21.1815C234.267 20.4137 235.697 20.0298 237.366 20.0298C239.057 20.0298 240.465 20.4137 241.589 21.1815C242.723 21.9381 243.608 23.0007 244.242 24.3693H244.509C245.166 23.0452 246.151 21.9937 247.464 21.2148C248.776 20.4248 250.351 20.0298 252.187 20.0298C254.479 20.0298 256.354 20.7475 257.812 22.1829C259.269 23.6071 259.998 25.8269 259.998 28.8423V46H256.059V28.8423C256.059 26.9508 255.542 25.5988 254.507 24.7866C253.472 23.9743 252.254 23.5682 250.852 23.5682C249.049 23.5682 247.653 24.1134 246.662 25.2038C245.672 26.2831 245.177 27.6518 245.177 29.3097V46H241.171V28.4418C241.171 26.9841 240.698 25.8103 239.753 24.9201C238.807 24.0188 237.588 23.5682 236.097 23.5682C235.074 23.5682 234.117 23.8408 233.227 24.386C232.348 24.9312 231.636 25.6879 231.09 26.6559C230.556 27.6128 230.289 28.7199 230.289 29.9773V46H226.35ZM277.948 46.5341C275.478 46.5341 273.347 45.9889 271.556 44.8984C269.776 43.7969 268.402 42.2614 267.434 40.2919C266.477 38.3113 265.998 36.008 265.998 33.3821C265.998 30.7562 266.477 28.4418 267.434 26.4389C268.402 24.425 269.748 22.8561 271.473 21.7322C273.208 20.5973 275.233 20.0298 277.548 20.0298C278.883 20.0298 280.202 20.2524 281.503 20.6974C282.805 21.1425 283.99 21.8658 285.059 22.8672C286.127 23.8575 286.978 25.1705 287.612 26.8061C288.246 28.4418 288.563 30.4557 288.563 32.848V34.517H268.802V31.1122H284.558C284.558 29.6657 284.268 28.375 283.69 27.2401C283.122 26.1051 282.31 25.2094 281.253 24.5529C280.207 23.8964 278.972 23.5682 277.548 23.5682C275.979 23.5682 274.621 23.9576 273.475 24.7365C272.34 25.5043 271.467 26.5057 270.855 27.7408C270.243 28.9759 269.937 30.3 269.937 31.7131V33.983C269.937 35.919 270.271 37.5603 270.938 38.9066C271.617 40.2418 272.557 41.2599 273.759 41.9609C274.961 42.6508 276.357 42.9957 277.948 42.9957C278.983 42.9957 279.918 42.8511 280.752 42.5618C281.598 42.2614 282.327 41.8163 282.939 41.2266C283.551 40.6257 284.024 39.8802 284.358 38.9901L288.163 40.0582C287.762 41.349 287.089 42.4839 286.143 43.4631C285.198 44.4311 284.029 45.1877 282.638 45.733C281.248 46.267 279.684 46.5341 277.948 46.5341ZM306.439 15.4901V11.8182H332.075V15.4901H321.327V46H317.187V15.4901H306.439ZM341.985 46.6009C340.361 46.6009 338.886 46.2949 337.562 45.6829C336.238 45.0598 335.187 44.1641 334.408 42.9957C333.629 41.8163 333.239 40.392 333.239 38.723C333.239 37.2543 333.529 36.0637 334.107 35.1513C334.686 34.2277 335.459 33.5045 336.427 32.9815C337.395 32.4586 338.463 32.0691 339.632 31.8132C340.811 31.5462 341.996 31.3348 343.187 31.179C344.745 30.9787 346.007 30.8285 346.975 30.7283C347.955 30.6171 348.667 30.4335 349.112 30.1776C349.568 29.9216 349.796 29.4766 349.796 28.8423V28.7088C349.796 27.062 349.346 25.7824 348.444 24.87C347.554 23.9576 346.202 23.5014 344.388 23.5014C342.508 23.5014 341.034 23.9131 339.966 24.7365C338.897 25.5599 338.146 26.4389 337.712 27.3736L333.974 26.0384C334.641 24.4806 335.531 23.2678 336.644 22.3999C337.768 21.5208 338.992 20.9089 340.316 20.5639C341.651 20.2079 342.964 20.0298 344.255 20.0298C345.078 20.0298 346.024 20.13 347.092 20.3303C348.172 20.5194 349.212 20.9144 350.213 21.5153C351.226 22.1161 352.066 23.023 352.734 24.2358C353.401 25.4486 353.735 27.0732 353.735 29.1094V46H349.796V42.5284H349.596C349.329 43.0848 348.884 43.68 348.261 44.3143C347.638 44.9485 346.809 45.4882 345.774 45.9332C344.739 46.3783 343.476 46.6009 341.985 46.6009ZM342.586 43.0625C344.144 43.0625 345.457 42.7565 346.525 42.1445C347.604 41.5326 348.416 40.7425 348.962 39.7745C349.518 38.8065 349.796 37.7884 349.796 36.7202V33.1151C349.629 33.3153 349.262 33.4989 348.695 33.6658C348.138 33.8216 347.493 33.9607 346.759 34.0831C346.035 34.1944 345.329 34.2945 344.639 34.3835C343.96 34.4614 343.409 34.5282 342.987 34.5838C341.963 34.7173 341.006 34.9343 340.116 35.2347C339.237 35.524 338.525 35.9635 337.979 36.5533C337.445 37.1319 337.178 37.9219 337.178 38.9233C337.178 40.2919 337.685 41.3267 338.697 42.0277C339.721 42.7176 341.017 43.0625 342.586 43.0625ZM371.272 56.1477C369.37 56.1477 367.734 55.9029 366.366 55.4134C364.997 54.9349 363.856 54.3007 362.944 53.5107C362.043 52.7318 361.325 51.8973 360.791 51.0071L363.929 48.804C364.285 49.2713 364.735 49.8054 365.281 50.4062C365.826 51.0182 366.571 51.5468 367.517 51.9918C368.474 52.448 369.726 52.6761 371.272 52.6761C373.342 52.6761 375.05 52.1754 376.396 51.174C377.743 50.1726 378.416 48.6037 378.416 46.4673V41.2599H378.082C377.793 41.7273 377.381 42.3059 376.847 42.9957C376.324 43.6745 375.567 44.2809 374.577 44.815C373.598 45.3379 372.274 45.5994 370.605 45.5994C368.535 45.5994 366.677 45.1098 365.03 44.1307C363.395 43.1515 362.098 41.7273 361.141 39.858C360.196 37.9886 359.723 35.7187 359.723 33.0483C359.723 30.4223 360.185 28.1358 361.108 26.1886C362.032 24.2302 363.317 22.717 364.964 21.6488C366.61 20.5695 368.513 20.0298 370.672 20.0298C372.341 20.0298 373.665 20.308 374.644 20.8643C375.634 21.4096 376.391 22.0327 376.914 22.7337C377.448 23.4235 377.86 23.991 378.149 24.4361H378.549V20.3636H382.355V46.7344C382.355 48.9375 381.854 50.7289 380.853 52.1087C379.862 53.4995 378.527 54.5176 376.847 55.163C375.178 55.8195 373.32 56.1477 371.272 56.1477ZM371.139 42.0611C372.719 42.0611 374.054 41.6995 375.145 40.9762C376.235 40.253 377.064 39.2126 377.631 37.8551C378.199 36.4976 378.483 34.8731 378.483 32.9815C378.483 31.1345 378.205 29.5044 377.648 28.0913C377.092 26.6781 376.268 25.571 375.178 24.7699C374.088 23.9687 372.741 23.5682 371.139 23.5682C369.47 23.5682 368.079 23.991 366.966 24.8366C365.865 25.6823 365.036 26.8172 364.479 28.2415C363.934 29.6657 363.662 31.2457 363.662 32.9815C363.662 34.7618 363.94 36.3363 364.496 37.7049C365.064 39.0624 365.898 40.1306 367 40.9094C368.112 41.6772 369.492 42.0611 371.139 42.0611ZM399.913 56.1477C398.01 56.1477 396.375 55.9029 395.006 55.4134C393.638 54.9349 392.497 54.3007 391.585 53.5107C390.683 52.7318 389.966 51.8973 389.432 51.0071L392.569 48.804C392.925 49.2713 393.376 49.8054 393.921 50.4062C394.466 51.0182 395.212 51.5468 396.158 51.9918C397.115 52.448 398.366 52.6761 399.913 52.6761C401.983 52.6761 403.691 52.1754 405.037 51.174C406.383 50.1726 407.057 48.6037 407.057 46.4673V41.2599H406.723C406.433 41.7273 406.022 42.3059 405.488 42.9957C404.965 43.6745 404.208 44.2809 403.218 44.815C402.239 45.3379 400.915 45.5994 399.245 45.5994C397.176 45.5994 395.318 45.1098 393.671 44.1307C392.035 43.1515 390.739 41.7273 389.782 39.858C388.836 37.9886 388.363 35.7187 388.363 33.0483C388.363 30.4223 388.825 28.1358 389.749 26.1886C390.672 24.2302 391.957 22.717 393.604 21.6488C395.251 20.5695 397.154 20.0298 399.312 20.0298C400.981 20.0298 402.305 20.308 403.285 20.8643C404.275 21.4096 405.031 22.0327 405.554 22.7337C406.089 23.4235 406.5 23.991 406.79 24.4361H407.19V20.3636H410.995V46.7344C410.995 48.9375 410.495 50.7289 409.493 52.1087C408.503 53.4995 407.168 54.5176 405.488 55.163C403.819 55.8195 401.96 56.1477 399.913 56.1477ZM399.78 42.0611C401.36 42.0611 402.695 41.6995 403.785 40.9762C404.876 40.253 405.705 39.2126 406.272 37.8551C406.84 36.4976 407.123 34.8731 407.123 32.9815C407.123 31.1345 406.845 29.5044 406.289 28.0913C405.732 26.6781 404.909 25.571 403.819 24.7699C402.728 23.9687 401.382 23.5682 399.78 23.5682C398.111 23.5682 396.72 23.991 395.607 24.8366C394.505 25.6823 393.676 26.8172 393.12 28.2415C392.575 29.6657 392.302 31.2457 392.302 32.9815C392.302 34.7618 392.58 36.3363 393.137 37.7049C393.704 39.0624 394.539 40.1306 395.64 40.9094C396.753 41.6772 398.133 42.0611 399.78 42.0611ZM428.954 46.5341C426.484 46.5341 424.353 45.9889 422.562 44.8984C420.782 43.7969 419.407 42.2614 418.439 40.2919C417.482 38.3113 417.004 36.008 417.004 33.3821C417.004 30.7562 417.482 28.4418 418.439 26.4389C419.407 24.425 420.754 22.8561 422.478 21.7322C424.214 20.5973 426.239 20.0298 428.554 20.0298C429.889 20.0298 431.207 20.2524 432.509 20.6974C433.811 21.1425 434.996 21.8658 436.064 22.8672C437.133 23.8575 437.984 25.1705 438.618 26.8061C439.252 28.4418 439.569 30.4557 439.569 32.848V34.517H419.808V31.1122H435.564C435.564 29.6657 435.274 28.375 434.696 27.2401C434.128 26.1051 433.316 25.2094 432.259 24.5529C431.213 23.8964 429.978 23.5682 428.554 23.5682C426.985 23.5682 425.627 23.9576 424.481 24.7365C423.346 25.5043 422.473 26.5057 421.861 27.7408C421.249 28.9759 420.943 30.3 420.943 31.7131V33.983C420.943 35.919 421.277 37.5603 421.944 38.9066C422.623 40.2418 423.563 41.2599 424.765 41.9609C425.967 42.6508 427.363 42.9957 428.954 42.9957C429.989 42.9957 430.924 42.8511 431.758 42.5618C432.604 42.2614 433.333 41.8163 433.945 41.2266C434.557 40.6257 435.03 39.8802 435.363 38.9901L439.169 40.0582C438.768 41.349 438.095 42.4839 437.149 43.4631C436.203 44.4311 435.035 45.1877 433.644 45.733C432.253 46.267 430.69 46.5341 428.954 46.5341ZM445.561 46V20.3636H449.367V24.2358H449.634C450.101 22.9673 450.947 21.9381 452.171 21.1481C453.395 20.3581 454.774 19.9631 456.31 19.9631C456.599 19.9631 456.961 19.9686 457.395 19.9798C457.829 19.9909 458.157 20.0076 458.379 20.0298V24.0355C458.246 24.0021 457.94 23.9521 457.461 23.8853C456.994 23.8074 456.499 23.7685 455.976 23.7685C454.73 23.7685 453.617 24.0299 452.638 24.5529C451.67 25.0647 450.902 25.7769 450.335 26.6893C449.778 27.5906 449.5 28.6198 449.5 29.777V46H445.561ZM487.35 46H476.801V11.8182H487.817C491.133 11.8182 493.97 12.5025 496.329 13.8711C498.688 15.2286 500.496 17.1813 501.753 19.7294C503.011 22.2663 503.639 25.304 503.639 28.8423C503.639 32.4029 503.005 35.4684 501.737 38.0387C500.468 40.5979 498.621 42.5674 496.195 43.9471C493.77 45.3157 490.821 46 487.35 46ZM480.941 42.3281H487.083C489.909 42.3281 492.251 41.7829 494.109 40.6925C495.967 39.602 497.353 38.0498 498.265 36.0359C499.177 34.0219 499.634 31.6241 499.634 28.8423C499.634 26.0829 499.183 23.7073 498.282 21.7156C497.381 19.7127 496.034 18.1772 494.243 17.109C492.451 16.0297 490.22 15.4901 487.55 15.4901H480.941V42.3281ZM520.797 46.5341C518.327 46.5341 516.196 45.9889 514.405 44.8984C512.624 43.7969 511.25 42.2614 510.282 40.2919C509.325 38.3113 508.847 36.008 508.847 33.3821C508.847 30.7562 509.325 28.4418 510.282 26.4389C511.25 24.425 512.597 22.8561 514.321 21.7322C516.057 20.5973 518.082 20.0298 520.396 20.0298C521.732 20.0298 523.05 20.2524 524.352 20.6974C525.654 21.1425 526.839 21.8658 527.907 22.8672C528.975 23.8575 529.827 25.1705 530.461 26.8061C531.095 28.4418 531.412 30.4557 531.412 32.848V34.517H511.651V31.1122H527.406C527.406 29.6657 527.117 28.375 526.539 27.2401C525.971 26.1051 525.159 25.2094 524.102 24.5529C523.056 23.8964 521.821 23.5682 520.396 23.5682C518.828 23.5682 517.47 23.9576 516.324 24.7365C515.189 25.5043 514.316 26.5057 513.704 27.7408C513.092 28.9759 512.786 30.3 512.786 31.7131V33.983C512.786 35.919 513.119 37.5603 513.787 38.9066C514.466 40.2418 515.406 41.2599 516.608 41.9609C517.809 42.6508 519.206 42.9957 520.797 42.9957C521.832 42.9957 522.767 42.8511 523.601 42.5618C524.447 42.2614 525.175 41.8163 525.787 41.2266C526.399 40.6257 526.872 39.8802 527.206 38.9901L531.012 40.0582C530.611 41.349 529.938 42.4839 528.992 43.4631C528.046 44.4311 526.878 45.1877 525.487 45.733C524.096 46.267 522.533 46.5341 520.797 46.5341ZM544.948 46.6009C543.323 46.6009 541.849 46.2949 540.525 45.6829C539.201 45.0598 538.149 44.1641 537.371 42.9957C536.592 41.8163 536.202 40.392 536.202 38.723C536.202 37.2543 536.492 36.0637 537.07 35.1513C537.649 34.2277 538.422 33.5045 539.39 32.9815C540.358 32.4586 541.426 32.0691 542.595 31.8132C543.774 31.5462 544.959 31.3348 546.15 31.179C547.707 30.9787 548.97 30.8285 549.938 30.7283C550.918 30.6171 551.63 30.4335 552.075 30.1776C552.531 29.9216 552.759 29.4766 552.759 28.8423V28.7088C552.759 27.062 552.308 25.7824 551.407 24.87C550.517 23.9576 549.165 23.5014 547.351 23.5014C545.471 23.5014 543.997 23.9131 542.928 24.7365C541.86 25.5599 541.109 26.4389 540.675 27.3736L536.937 26.0384C537.604 24.4806 538.494 23.2678 539.607 22.3999C540.731 21.5208 541.955 20.9089 543.279 20.5639C544.614 20.2079 545.927 20.0298 547.218 20.0298C548.041 20.0298 548.987 20.13 550.055 20.3303C551.135 20.5194 552.175 20.9144 553.176 21.5153C554.189 22.1161 555.029 23.023 555.697 24.2358C556.364 25.4486 556.698 27.0732 556.698 29.1094V46H552.759V42.5284H552.559C552.292 43.0848 551.847 43.68 551.224 44.3143C550.6 44.9485 549.771 45.4882 548.737 45.9332C547.702 46.3783 546.439 46.6009 544.948 46.6009ZM545.549 43.0625C547.107 43.0625 548.42 42.7565 549.488 42.1445C550.567 41.5326 551.379 40.7425 551.925 39.7745C552.481 38.8065 552.759 37.7884 552.759 36.7202V33.1151C552.592 33.3153 552.225 33.4989 551.657 33.6658C551.101 33.8216 550.456 33.9607 549.721 34.0831C548.998 34.1944 548.292 34.2945 547.602 34.3835C546.923 34.4614 546.372 34.5282 545.949 34.5838C544.926 34.7173 543.969 34.9343 543.079 35.2347C542.2 35.524 541.488 35.9635 540.942 36.5533C540.408 37.1319 540.141 37.9219 540.141 38.9233C540.141 40.2919 540.647 41.3267 541.66 42.0277C542.684 42.7176 543.98 43.0625 545.549 43.0625ZM573.568 46.5341C571.431 46.5341 569.545 45.9944 567.91 44.9151C566.274 43.8247 564.994 42.2892 564.071 40.3086C563.147 38.3169 562.686 35.9635 562.686 33.2486C562.686 30.5559 563.147 28.2192 564.071 26.2386C564.994 24.258 566.28 22.7281 567.926 21.6488C569.573 20.5695 571.476 20.0298 573.634 20.0298C575.304 20.0298 576.622 20.308 577.59 20.8643C578.569 21.4096 579.315 22.0327 579.827 22.7337C580.35 23.4235 580.756 23.991 581.045 24.4361H581.379V11.8182H585.318V46H581.512V42.0611H581.045C580.756 42.5284 580.344 43.1181 579.81 43.8303C579.276 44.5312 578.514 45.1599 577.523 45.7163C576.533 46.2615 575.215 46.5341 573.568 46.5341ZM574.102 42.9957C575.682 42.9957 577.017 42.584 578.108 41.7607C579.198 40.9261 580.027 39.7745 580.594 38.3058C581.162 36.8259 581.446 35.1179 581.446 33.1818C581.446 31.268 581.167 29.5934 580.611 28.158C580.055 26.7115 579.231 25.5877 578.141 24.7866C577.05 23.9743 575.704 23.5682 574.102 23.5682C572.433 23.5682 571.042 23.9966 569.929 24.8533C568.828 25.699 567.999 26.8506 567.442 28.3082C566.897 29.7547 566.625 31.3793 566.625 33.1818C566.625 35.0066 566.903 36.6645 567.459 38.1555C568.027 39.6354 568.861 40.8149 569.963 41.6939C571.075 42.5618 572.455 42.9957 574.102 42.9957ZM604.962 15.4901V11.8182H630.599V15.4901H619.85V46H615.711V15.4901H604.962ZM636.453 46V20.3636H640.392V46H636.453ZM638.456 16.0909C637.688 16.0909 637.026 15.8294 636.469 15.3065C635.924 14.7835 635.652 14.1548 635.652 13.4205C635.652 12.6861 635.924 12.0574 636.469 11.5344C637.026 11.0115 637.688 10.75 638.456 10.75C639.223 10.75 639.88 11.0115 640.425 11.5344C640.981 12.0574 641.26 12.6861 641.26 13.4205C641.26 14.1548 640.981 14.7835 640.425 15.3065C639.88 15.8294 639.223 16.0909 638.456 16.0909ZM647.606 46V20.3636H651.411V24.3693H651.745C652.279 23.0007 653.142 21.9381 654.332 21.1815C655.523 20.4137 656.953 20.0298 658.622 20.0298C660.313 20.0298 661.721 20.4137 662.844 21.1815C663.979 21.9381 664.864 23.0007 665.498 24.3693H665.765C666.422 23.0452 667.406 21.9937 668.719 21.2148C670.032 20.4248 671.607 20.0298 673.443 20.0298C675.735 20.0298 677.61 20.7475 679.067 22.1829C680.525 23.6071 681.254 25.8269 681.254 28.8423V46H677.315V28.8423C677.315 26.9508 676.797 25.5988 675.763 24.7866C674.728 23.9743 673.509 23.5682 672.108 23.5682C670.305 23.5682 668.909 24.1134 667.918 25.2038C666.928 26.2831 666.433 27.6518 666.433 29.3097V46H662.427V28.4418C662.427 26.9841 661.954 25.8103 661.008 24.9201C660.063 24.0188 658.844 23.5682 657.353 23.5682C656.33 23.5682 655.373 23.8408 654.483 24.386C653.603 24.9312 652.891 25.6879 652.346 26.6559C651.812 27.6128 651.545 28.7199 651.545 29.9773V46H647.606ZM699.204 46.5341C696.734 46.5341 694.603 45.9889 692.812 44.8984C691.032 43.7969 689.657 42.2614 688.689 40.2919C687.732 38.3113 687.254 36.008 687.254 33.3821C687.254 30.7562 687.732 28.4418 688.689 26.4389C689.657 24.425 691.004 22.8561 692.728 21.7322C694.464 20.5973 696.489 20.0298 698.804 20.0298C700.139 20.0298 701.457 20.2524 702.759 20.6974C704.061 21.1425 705.246 21.8658 706.314 22.8672C707.383 23.8575 708.234 25.1705 708.868 26.8061C709.502 28.4418 709.819 30.4557 709.819 32.848V34.517H690.058V31.1122H705.814C705.814 29.6657 705.524 28.375 704.946 27.2401C704.378 26.1051 703.566 25.2094 702.509 24.5529C701.463 23.8964 700.228 23.5682 698.804 23.5682C697.235 23.5682 695.877 23.9576 694.731 24.7365C693.596 25.5043 692.723 26.5057 692.111 27.7408C691.499 28.9759 691.193 30.3 691.193 31.7131V33.983C691.193 35.919 691.527 37.5603 692.194 38.9066C692.873 40.2418 693.813 41.2599 695.015 41.9609C696.217 42.6508 697.613 42.9957 699.204 42.9957C700.239 42.9957 701.174 42.8511 702.008 42.5618C702.854 42.2614 703.583 41.8163 704.195 41.2266C704.807 40.6257 705.28 39.8802 705.613 38.9901L709.419 40.0582C709.018 41.349 708.345 42.4839 707.399 43.4631C706.453 44.4311 705.285 45.1877 703.894 45.733C702.503 46.267 700.94 46.5341 699.204 46.5341Z" fill="black"/>
<path d="M5.54119 728H1.2017L13.7528 693.818H18.0256L30.5767 728H26.2372L16.0227 699.226H15.7557L5.54119 728ZM7.14347 714.648H24.6349V718.32H7.14347V714.648ZM39.3058 712.578V728H35.3668V702.364H39.1722V706.369H39.506C40.1069 705.067 41.0193 704.022 42.2433 703.232C43.4672 702.43 45.0472 702.03 46.9833 702.03C48.7191 702.03 50.2379 702.386 51.5398 703.098C52.8416 703.799 53.8542 704.867 54.5774 706.303C55.3007 707.727 55.6623 709.529 55.6623 711.71V728H51.7234V711.977C51.7234 709.963 51.2004 708.394 50.1545 707.271C49.1085 706.136 47.6732 705.568 45.8484 705.568C44.591 705.568 43.4672 705.841 42.4769 706.386C41.4978 706.931 40.7244 707.727 40.157 708.773C39.5895 709.819 39.3058 711.087 39.3058 712.578ZM74.0091 702.364V705.702H60.7236V702.364H74.0091ZM64.5958 696.222H68.5347V720.656C68.5347 721.769 68.6961 722.603 69.0187 723.16C69.3525 723.705 69.7754 724.072 70.2872 724.261C70.8102 724.439 71.3609 724.528 71.9395 724.528C72.3735 724.528 72.7296 724.506 73.0077 724.462C73.2859 724.406 73.5084 724.362 73.6753 724.328L74.4765 727.866C74.2094 727.967 73.8367 728.067 73.3582 728.167C72.8798 728.278 72.2733 728.334 71.539 728.334C70.4263 728.334 69.3358 728.095 68.2677 727.616C67.2106 727.138 66.3316 726.409 65.6306 725.43C64.9407 724.451 64.5958 723.215 64.5958 721.724V696.222ZM79.9342 728V702.364H83.8731V728H79.9342ZM81.9371 698.091C81.1693 698.091 80.5073 697.829 79.9509 697.306C79.4057 696.783 79.1331 696.155 79.1331 695.42C79.1331 694.686 79.4057 694.057 79.9509 693.534C80.5073 693.011 81.1693 692.75 81.9371 692.75C82.7048 692.75 83.3613 693.011 83.9065 693.534C84.4629 694.057 84.741 694.686 84.741 695.42C84.741 696.155 84.4629 696.783 83.9065 697.306C83.3613 697.829 82.7048 698.091 81.9371 698.091ZM105.775 711.51V715.182H90.8205V711.51H105.775ZM107.882 697.49V693.818H133.519V697.49H122.77V728H118.631V697.49H107.882ZM139.373 728V702.364H143.312V728H139.373ZM141.376 698.091C140.608 698.091 139.946 697.829 139.389 697.306C138.844 696.783 138.572 696.155 138.572 695.42C138.572 694.686 138.844 694.057 139.389 693.534C139.946 693.011 140.608 692.75 141.376 692.75C142.143 692.75 142.8 693.011 143.345 693.534C143.901 694.057 144.18 694.686 144.18 695.42C144.18 696.155 143.901 696.783 143.345 697.306C142.8 697.829 142.143 698.091 141.376 698.091ZM150.526 728V702.364H154.331V706.369H154.665C155.199 705.001 156.062 703.938 157.252 703.181C158.443 702.414 159.873 702.03 161.542 702.03C163.233 702.03 164.64 702.414 165.764 703.181C166.899 703.938 167.784 705.001 168.418 706.369H168.685C169.342 705.045 170.326 703.994 171.639 703.215C172.952 702.425 174.527 702.03 176.363 702.03C178.655 702.03 180.53 702.748 181.987 704.183C183.445 705.607 184.174 707.827 184.174 710.842V728H180.235V710.842C180.235 708.951 179.717 707.599 178.683 706.787C177.648 705.974 176.429 705.568 175.027 705.568C173.225 705.568 171.828 706.113 170.838 707.204C169.848 708.283 169.353 709.652 169.353 711.31V728H165.347V710.442C165.347 708.984 164.874 707.81 163.928 706.92C162.983 706.019 161.764 705.568 160.273 705.568C159.249 705.568 158.293 705.841 157.402 706.386C156.523 706.931 155.811 707.688 155.266 708.656C154.732 709.613 154.465 710.72 154.465 711.977V728H150.526ZM202.124 728.534C199.654 728.534 197.523 727.989 195.732 726.898C193.951 725.797 192.577 724.261 191.609 722.292C190.652 720.311 190.174 718.008 190.174 715.382C190.174 712.756 190.652 710.442 191.609 708.439C192.577 706.425 193.924 704.856 195.648 703.732C197.384 702.597 199.409 702.03 201.724 702.03C203.059 702.03 204.377 702.252 205.679 702.697C206.981 703.143 208.166 703.866 209.234 704.867C210.302 705.857 211.154 707.17 211.788 708.806C212.422 710.442 212.739 712.456 212.739 714.848V716.517H192.978V713.112H208.734C208.734 711.666 208.444 710.375 207.866 709.24C207.298 708.105 206.486 707.209 205.429 706.553C204.383 705.896 203.148 705.568 201.724 705.568C200.155 705.568 198.797 705.958 197.651 706.737C196.516 707.504 195.643 708.506 195.031 709.741C194.419 710.976 194.113 712.3 194.113 713.713V715.983C194.113 717.919 194.447 719.56 195.114 720.907C195.793 722.242 196.733 723.26 197.935 723.961C199.137 724.651 200.533 724.996 202.124 724.996C203.159 724.996 204.094 724.851 204.928 724.562C205.774 724.261 206.503 723.816 207.115 723.227C207.727 722.626 208.199 721.88 208.533 720.99L212.339 722.058C211.938 723.349 211.265 724.484 210.319 725.463C209.373 726.431 208.205 727.188 206.814 727.733C205.423 728.267 203.86 728.534 202.124 728.534ZM233.419 711.51V715.182H218.464V711.51H233.419ZM244.705 728L235.359 693.818H239.565L246.708 721.658H247.042L254.319 693.818H258.992L266.269 721.658H266.603L273.747 693.818H277.953L268.606 728H264.333L256.789 700.761H256.522L248.978 728H244.705ZM287.733 728.601C286.109 728.601 284.634 728.295 283.31 727.683C281.986 727.06 280.935 726.164 280.156 724.996C279.377 723.816 278.987 722.392 278.987 720.723C278.987 719.254 279.277 718.064 279.855 717.151C280.434 716.228 281.207 715.504 282.175 714.982C283.143 714.459 284.211 714.069 285.38 713.813C286.559 713.546 287.744 713.335 288.935 713.179C290.493 712.979 291.756 712.828 292.724 712.728C293.703 712.617 294.415 712.433 294.86 712.178C295.316 711.922 295.544 711.477 295.544 710.842V710.709C295.544 709.062 295.094 707.782 294.192 706.87C293.302 705.958 291.95 705.501 290.137 705.501C288.256 705.501 286.782 705.913 285.714 706.737C284.645 707.56 283.894 708.439 283.46 709.374L279.722 708.038C280.389 706.481 281.28 705.268 282.392 704.4C283.516 703.521 284.74 702.909 286.064 702.564C287.399 702.208 288.712 702.03 290.003 702.03C290.826 702.03 291.772 702.13 292.84 702.33C293.92 702.519 294.96 702.914 295.961 703.515C296.974 704.116 297.814 705.023 298.482 706.236C299.149 707.449 299.483 709.073 299.483 711.109V728H295.544V724.528H295.344C295.077 725.085 294.632 725.68 294.009 726.314C293.386 726.949 292.557 727.488 291.522 727.933C290.487 728.378 289.224 728.601 287.733 728.601ZM288.334 725.062C289.892 725.062 291.205 724.757 292.273 724.145C293.352 723.533 294.164 722.743 294.71 721.775C295.266 720.806 295.544 719.788 295.544 718.72V715.115C295.377 715.315 295.01 715.499 294.443 715.666C293.886 715.822 293.241 715.961 292.507 716.083C291.783 716.194 291.077 716.295 290.387 716.384C289.708 716.461 289.157 716.528 288.735 716.584C287.711 716.717 286.754 716.934 285.864 717.235C284.985 717.524 284.273 717.964 283.727 718.553C283.193 719.132 282.926 719.922 282.926 720.923C282.926 722.292 283.433 723.327 284.445 724.028C285.469 724.718 286.765 725.062 288.334 725.062ZM310.611 693.818V728H306.672V693.818H310.611ZM321.498 718.653L321.431 713.78H322.232L333.448 702.364H338.322L326.371 714.447H326.037L321.498 718.653ZM317.826 728V693.818H321.765V728H317.826ZM334.116 728L324.101 715.315L326.905 712.578L339.123 728H334.116ZM367.692 728H357.144V693.818H368.16C371.476 693.818 374.313 694.502 376.672 695.871C379.031 697.229 380.839 699.181 382.096 701.729C383.353 704.266 383.982 707.304 383.982 710.842C383.982 714.403 383.348 717.468 382.079 720.039C380.811 722.598 378.964 724.567 376.538 725.947C374.113 727.316 371.164 728 367.692 728ZM361.283 724.328H367.425C370.252 724.328 372.594 723.783 374.452 722.692C376.31 721.602 377.695 720.05 378.608 718.036C379.52 716.022 379.976 713.624 379.976 710.842C379.976 708.083 379.526 705.707 378.625 703.716C377.723 701.713 376.377 700.177 374.585 699.109C372.794 698.03 370.563 697.49 367.893 697.49H361.283V724.328ZM401.14 728.534C398.67 728.534 396.539 727.989 394.747 726.898C392.967 725.797 391.593 724.261 390.625 722.292C389.668 720.311 389.19 718.008 389.19 715.382C389.19 712.756 389.668 710.442 390.625 708.439C391.593 706.425 392.939 704.856 394.664 703.732C396.4 702.597 398.425 702.03 400.739 702.03C402.074 702.03 403.393 702.252 404.695 702.697C405.997 703.143 407.182 703.866 408.25 704.867C409.318 705.857 410.169 707.17 410.804 708.806C411.438 710.442 411.755 712.456 411.755 714.848V716.517H391.994V713.112H407.749C407.749 711.666 407.46 710.375 406.881 709.24C406.314 708.105 405.502 707.209 404.445 706.553C403.399 705.896 402.164 705.568 400.739 705.568C399.17 705.568 397.813 705.958 396.667 706.737C395.532 707.504 394.658 708.506 394.046 709.741C393.434 710.976 393.128 712.3 393.128 713.713V715.983C393.128 717.919 393.462 719.56 394.13 720.907C394.809 722.242 395.749 723.26 396.951 723.961C398.152 724.651 399.549 724.996 401.14 724.996C402.175 724.996 403.109 724.851 403.944 724.562C404.789 724.261 405.518 723.816 406.13 723.227C406.742 722.626 407.215 721.88 407.549 720.99L411.354 722.058C410.954 723.349 410.281 724.484 409.335 725.463C408.389 726.431 407.221 727.188 405.83 727.733C404.439 728.267 402.876 728.534 401.14 728.534ZM425.291 728.601C423.666 728.601 422.192 728.295 420.868 727.683C419.544 727.06 418.492 726.164 417.713 724.996C416.934 723.816 416.545 722.392 416.545 720.723C416.545 719.254 416.834 718.064 417.413 717.151C417.992 716.228 418.765 715.504 419.733 714.982C420.701 714.459 421.769 714.069 422.937 713.813C424.117 713.546 425.302 713.335 426.492 713.179C428.05 712.979 429.313 712.828 430.281 712.728C431.26 712.617 431.972 712.433 432.418 712.178C432.874 711.922 433.102 711.477 433.102 710.842V710.709C433.102 709.062 432.651 707.782 431.75 706.87C430.86 705.958 429.508 705.501 427.694 705.501C425.814 705.501 424.339 705.913 423.271 706.737C422.203 707.56 421.452 708.439 421.018 709.374L417.279 708.038C417.947 706.481 418.837 705.268 419.95 704.4C421.074 703.521 422.298 702.909 423.622 702.564C424.957 702.208 426.27 702.03 427.561 702.03C428.384 702.03 429.33 702.13 430.398 702.33C431.477 702.519 432.518 702.914 433.519 703.515C434.532 704.116 435.372 705.023 436.039 706.236C436.707 707.449 437.041 709.073 437.041 711.109V728H433.102V724.528H432.902C432.634 725.085 432.189 725.68 431.566 726.314C430.943 726.949 430.114 727.488 429.079 727.933C428.045 728.378 426.782 728.601 425.291 728.601ZM425.892 725.062C427.449 725.062 428.762 724.757 429.831 724.145C430.91 723.533 431.722 722.743 432.267 721.775C432.824 720.806 433.102 719.788 433.102 718.72V715.115C432.935 715.315 432.568 715.499 432 715.666C431.444 715.822 430.799 715.961 430.064 716.083C429.341 716.194 428.634 716.295 427.945 716.384C427.266 716.461 426.715 716.528 426.292 716.584C425.268 716.717 424.312 716.934 423.421 717.235C422.542 717.524 421.83 717.964 421.285 718.553C420.751 719.132 420.484 719.922 420.484 720.923C420.484 722.292 420.99 723.327 422.003 724.028C423.026 724.718 424.323 725.062 425.892 725.062ZM453.911 728.534C451.774 728.534 449.888 727.994 448.252 726.915C446.617 725.825 445.337 724.289 444.414 722.309C443.49 720.317 443.028 717.964 443.028 715.249C443.028 712.556 443.49 710.219 444.414 708.239C445.337 706.258 446.622 704.728 448.269 703.649C449.916 702.569 451.819 702.03 453.977 702.03C455.646 702.03 456.965 702.308 457.933 702.864C458.912 703.41 459.658 704.033 460.169 704.734C460.692 705.424 461.098 705.991 461.388 706.436H461.722V693.818H465.661V728H461.855V724.061H461.388C461.098 724.528 460.687 725.118 460.153 725.83C459.619 726.531 458.856 727.16 457.866 727.716C456.876 728.261 455.557 728.534 453.911 728.534ZM454.445 724.996C456.025 724.996 457.36 724.584 458.45 723.761C459.541 722.926 460.37 721.775 460.937 720.306C461.505 718.826 461.788 717.118 461.788 715.182C461.788 713.268 461.51 711.593 460.954 710.158C460.397 708.712 459.574 707.588 458.484 706.787C457.393 705.974 456.047 705.568 454.445 705.568C452.776 705.568 451.385 705.997 450.272 706.853C449.17 707.699 448.342 708.851 447.785 710.308C447.24 711.755 446.967 713.379 446.967 715.182C446.967 717.007 447.246 718.665 447.802 720.156C448.369 721.635 449.204 722.815 450.305 723.694C451.418 724.562 452.798 724.996 454.445 724.996ZM485.305 697.49V693.818H510.941V697.49H500.193V728H496.054V697.49H485.305ZM516.796 728V702.364H520.734V728H516.796ZM518.798 698.091C518.031 698.091 517.369 697.829 516.812 697.306C516.267 696.783 515.994 696.155 515.994 695.42C515.994 694.686 516.267 694.057 516.812 693.534C517.369 693.011 518.031 692.75 518.798 692.75C519.566 692.75 520.223 693.011 520.768 693.534C521.324 694.057 521.602 694.686 521.602 695.42C521.602 696.155 521.324 696.783 520.768 697.306C520.223 697.829 519.566 698.091 518.798 698.091ZM527.949 728V702.364H531.754V706.369H532.088C532.622 705.001 533.484 703.938 534.675 703.181C535.866 702.414 537.295 702.03 538.964 702.03C540.656 702.03 542.063 702.414 543.187 703.181C544.322 703.938 545.207 705.001 545.841 706.369H546.108C546.764 705.045 547.749 703.994 549.062 703.215C550.375 702.425 551.95 702.03 553.786 702.03C556.078 702.03 557.953 702.748 559.41 704.183C560.868 705.607 561.597 707.827 561.597 710.842V728H557.658V710.842C557.658 708.951 557.14 707.599 556.105 706.787C555.071 705.974 553.852 705.568 552.45 705.568C550.648 705.568 549.251 706.113 548.261 707.204C547.271 708.283 546.776 709.652 546.776 711.31V728H542.77V710.442C542.77 708.984 542.297 707.81 541.351 706.92C540.405 706.019 539.187 705.568 537.696 705.568C536.672 705.568 535.715 705.841 534.825 706.386C533.946 706.931 533.234 707.688 532.689 708.656C532.155 709.613 531.888 710.72 531.888 711.977V728H527.949ZM579.547 728.534C577.077 728.534 574.946 727.989 573.155 726.898C571.374 725.797 570 724.261 569.032 722.292C568.075 720.311 567.597 718.008 567.597 715.382C567.597 712.756 568.075 710.442 569.032 708.439C570 706.425 571.347 704.856 573.071 703.732C574.807 702.597 576.832 702.03 579.146 702.03C580.482 702.03 581.8 702.252 583.102 702.697C584.404 703.143 585.589 703.866 586.657 704.867C587.725 705.857 588.577 707.17 589.211 708.806C589.845 710.442 590.162 712.456 590.162 714.848V716.517H570.401V713.112H586.156C586.156 711.666 585.867 710.375 585.289 709.24C584.721 708.105 583.909 707.209 582.852 706.553C581.806 705.896 580.571 705.568 579.146 705.568C577.578 705.568 576.22 705.958 575.074 706.737C573.939 707.504 573.066 708.506 572.454 709.741C571.842 710.976 571.536 712.3 571.536 713.713V715.983C571.536 717.919 571.869 719.56 572.537 720.907C573.216 722.242 574.156 723.26 575.358 723.961C576.559 724.651 577.956 724.996 579.547 724.996C580.582 724.996 581.517 724.851 582.351 724.562C583.197 724.261 583.925 723.816 584.537 723.227C585.149 722.626 585.622 721.88 585.956 720.99L589.762 722.058C589.361 723.349 588.688 724.484 587.742 725.463C586.796 726.431 585.628 727.188 584.237 727.733C582.846 728.267 581.283 728.534 579.547 728.534Z" fill="black"/>
</svg>
