<svg width="344" height="179" viewBox="0 0 344 179" fill="none" xmlns="http://www.w3.org/2000/svg">
<path d="M5.46591 27.4747V7.11109H17.7557V9.29859H7.93182V16.1793H17.1193V18.3668H7.93182V25.2872H17.9148V27.4747H5.46591ZM34.3707 12.202L28.723 27.4747H26.3366L20.6889 12.202H23.2344L27.4503 24.3725H27.6094L31.8253 12.202H34.3707ZM43.3246 27.7929C41.853 27.7929 40.5836 27.4681 39.5163 26.8185C38.4557 26.1622 37.6371 25.2475 37.0604 24.0742C36.4903 22.8942 36.2053 21.5221 36.2053 19.9577C36.2053 18.3933 36.4903 17.0145 37.0604 15.8213C37.6371 14.6215 38.4392 13.6869 39.4666 13.0173C40.5007 12.3412 41.7071 12.0031 43.0859 12.0031C43.8814 12.0031 44.6669 12.1357 45.4425 12.4009C46.218 12.666 46.924 13.0969 47.5604 13.6935C48.1967 14.2834 48.7038 15.0656 49.0817 16.0401C49.4595 17.0145 49.6484 18.2143 49.6484 19.6395V20.6338H37.8757V18.6054H47.2621C47.2621 17.7437 47.0897 16.9747 46.745 16.2986C46.407 15.6225 45.9231 15.0888 45.2933 14.6977C44.6702 14.3066 43.9344 14.1111 43.0859 14.1111C42.1513 14.1111 41.3426 14.3431 40.6598 14.8071C39.9837 15.2645 39.4633 15.8611 39.0987 16.5969C38.7341 17.3327 38.5518 18.1215 38.5518 18.9634V20.3156C38.5518 21.469 38.7507 22.4468 39.1484 23.2489C39.5528 24.0443 40.1129 24.6509 40.8288 25.0685C41.5447 25.4795 42.3767 25.685 43.3246 25.685C43.9411 25.685 44.4979 25.5988 44.995 25.4264C45.4988 25.2475 45.933 24.9823 46.2976 24.631C46.6622 24.273 46.9439 23.8289 47.1428 23.2986L49.4098 23.935C49.1712 24.7039 48.7701 25.38 48.2067 25.9634C47.6432 26.5401 46.9472 26.9908 46.1186 27.3156C45.29 27.6338 44.3587 27.7929 43.3246 27.7929ZM55.5646 18.2872V27.4747H53.218V12.202H55.4851V14.5884H55.6839C56.0419 13.8128 56.5855 13.1897 57.3146 12.719C58.0438 12.2418 58.9851 12.0031 60.1385 12.0031C61.1726 12.0031 62.0774 12.2153 62.853 12.6395C63.6286 13.0571 64.2318 13.6935 64.6626 14.5486C65.0935 15.3971 65.3089 16.4709 65.3089 17.7702V27.4747H62.9624V17.9293C62.9624 16.7295 62.6508 15.7948 62.0277 15.1253C61.4046 14.4492 60.5495 14.1111 59.4624 14.1111C58.7133 14.1111 58.0438 14.2735 57.4538 14.5983C56.8705 14.9231 56.4098 15.3971 56.0717 16.0202C55.7337 16.6433 55.5646 17.399 55.5646 18.2872ZM76.239 12.202V14.1906H68.3242V12.202H76.239ZM70.631 8.54291H72.9776V23.0997C72.9776 23.7626 73.0737 24.2598 73.266 24.5912C73.4648 24.916 73.7167 25.1348 74.0217 25.2475C74.3332 25.3535 74.6613 25.4065 75.006 25.4065C75.2646 25.4065 75.4767 25.3933 75.6424 25.3668C75.8081 25.3336 75.9407 25.3071 76.0401 25.2872L76.5174 27.3952C76.3583 27.4548 76.1362 27.5145 75.8512 27.5742C75.5662 27.6405 75.2049 27.6736 74.7674 27.6736C74.1045 27.6736 73.4549 27.5311 72.8185 27.246C72.1888 26.961 71.6651 26.5268 71.2475 25.9435C70.8365 25.3601 70.631 24.6244 70.631 23.7361V8.54291ZM87.962 27.4747V7.11109H90.4279V25.2872H99.8938V27.4747H87.962ZM109.598 27.7929C108.22 27.7929 107.01 27.4648 105.969 26.8085C104.935 26.1523 104.126 25.2342 103.543 24.0543C102.966 22.8744 102.678 21.4956 102.678 19.9179C102.678 18.327 102.966 16.9383 103.543 15.7517C104.126 14.5652 104.935 13.6438 105.969 12.9875C107.01 12.3313 108.22 12.0031 109.598 12.0031C110.977 12.0031 112.184 12.3313 113.218 12.9875C114.258 13.6438 115.067 14.5652 115.644 15.7517C116.227 16.9383 116.519 18.327 116.519 19.9179C116.519 21.4956 116.227 22.8744 115.644 24.0543C115.067 25.2342 114.258 26.1523 113.218 26.8085C112.184 27.4648 110.977 27.7929 109.598 27.7929ZM109.598 25.685C110.646 25.685 111.507 25.4165 112.184 24.8796C112.86 24.3426 113.36 23.6367 113.685 22.7617C114.01 21.8867 114.172 20.9387 114.172 19.9179C114.172 18.8971 114.01 17.9458 113.685 17.0642C113.36 16.1826 112.86 15.47 112.184 14.9264C111.507 14.3829 110.646 14.1111 109.598 14.1111C108.551 14.1111 107.689 14.3829 107.013 14.9264C106.337 15.47 105.837 16.1826 105.512 17.0642C105.187 17.9458 105.025 18.8971 105.025 19.9179C105.025 20.9387 105.187 21.8867 105.512 22.7617C105.837 23.6367 106.337 24.3426 107.013 24.8796C107.689 25.4165 108.551 25.685 109.598 25.685ZM126.305 27.7929C124.927 27.7929 123.717 27.4648 122.676 26.8085C121.642 26.1523 120.833 25.2342 120.25 24.0543C119.673 22.8744 119.385 21.4956 119.385 19.9179C119.385 18.327 119.673 16.9383 120.25 15.7517C120.833 14.5652 121.642 13.6438 122.676 12.9875C123.717 12.3313 124.927 12.0031 126.305 12.0031C127.684 12.0031 128.891 12.3313 129.925 12.9875C130.965 13.6438 131.774 14.5652 132.351 15.7517C132.934 16.9383 133.226 18.327 133.226 19.9179C133.226 21.4956 132.934 22.8744 132.351 24.0543C131.774 25.2342 130.965 26.1523 129.925 26.8085C128.891 27.4648 127.684 27.7929 126.305 27.7929ZM126.305 25.685C127.353 25.685 128.214 25.4165 128.891 24.8796C129.567 24.3426 130.067 23.6367 130.392 22.7617C130.717 21.8867 130.879 20.9387 130.879 19.9179C130.879 18.8971 130.717 17.9458 130.392 17.0642C130.067 16.1826 129.567 15.47 128.891 14.9264C128.214 14.3829 127.353 14.1111 126.305 14.1111C125.258 14.1111 124.396 14.3829 123.72 14.9264C123.044 15.47 122.544 16.1826 122.219 17.0642C121.894 17.9458 121.732 18.8971 121.732 19.9179C121.732 20.9387 121.894 21.8867 122.219 22.7617C122.544 23.6367 123.044 24.3426 123.72 24.8796C124.396 25.4165 125.258 25.685 126.305 25.685ZM136.808 33.202V12.202H139.075V14.6281H139.353C139.526 14.363 139.764 14.0249 140.069 13.6139C140.381 13.1963 140.825 12.8251 141.402 12.5003C141.985 12.1689 142.774 12.0031 143.768 12.0031C145.054 12.0031 146.188 12.3246 147.169 12.9676C148.15 13.6106 148.915 14.5221 149.466 15.702C150.016 16.8819 150.291 18.274 150.291 19.8781C150.291 21.4956 150.016 22.8976 149.466 24.0841C148.915 25.264 148.153 26.1788 147.179 26.8284C146.204 27.4714 145.081 27.7929 143.808 27.7929C142.827 27.7929 142.041 27.6305 141.451 27.3057C140.861 26.9743 140.407 26.5997 140.089 26.1821C139.771 25.7579 139.526 25.4065 139.353 25.1281H139.154V33.202H136.808ZM139.115 19.8384C139.115 20.9918 139.284 22.0093 139.622 22.8909C139.96 23.7659 140.454 24.452 141.103 24.9492C141.753 25.4397 142.548 25.685 143.49 25.685C144.471 25.685 145.289 25.4264 145.946 24.9094C146.609 24.3857 147.106 23.6831 147.437 22.8014C147.775 21.9132 147.944 20.9255 147.944 19.8384C147.944 18.7645 147.779 17.7967 147.447 16.935C147.122 16.0666 146.628 15.3805 145.966 14.8767C145.309 14.3663 144.484 14.1111 143.49 14.1111C142.535 14.1111 141.733 14.353 141.083 14.8369C140.434 15.3142 139.943 15.9837 139.612 16.8455C139.28 17.7006 139.115 18.6982 139.115 19.8384Z" fill="#636363"/>
<path d="M342.477 109.596C343.649 108.424 343.649 106.525 342.477 105.353L323.386 86.2615C322.214 85.09 320.314 85.09 319.143 86.2615C317.971 87.4331 317.971 89.3326 319.143 90.5042L336.113 107.475L319.143 124.445C317.971 125.617 317.971 127.516 319.143 128.688C320.314 129.86 322.214 129.86 323.386 128.688L342.477 109.596ZM180 110.475L340.356 110.475L340.356 104.475L180 104.475L180 110.475Z" fill="black"/>
<circle cx="79.25" cy="118.475" r="56.75" stroke="black" stroke-opacity="0.05" stroke-width="6"/>
<path d="M134.379 123.846C135.55 125.018 137.45 125.018 138.621 123.846L157.713 104.754C158.885 103.583 158.885 101.683 157.713 100.512C156.542 99.34 154.642 99.34 153.471 100.512L136.5 117.482L119.529 100.512C118.358 99.34 116.458 99.34 115.287 100.512C114.115 101.683 114.115 103.583 115.287 104.754L134.379 123.846ZM78.5 64.7247C112.463 64.7247 133.5 94.9742 133.5 121.725H139.5C139.5 92.4753 116.537 58.7247 78.5 58.7247V64.7247Z" fill="black"/>
<path d="M24.6213 113.103C23.4498 111.932 21.5503 111.932 20.3787 113.103L1.2868 132.195C0.11523 133.367 0.11523 135.266 1.2868 136.438C2.45837 137.61 4.35787 137.61 5.52944 136.438L22.5 119.467L39.4706 136.438C40.6421 137.61 42.5416 137.61 43.7132 136.438C44.8848 135.266 44.8848 133.367 43.7132 132.195L24.6213 113.103ZM80.5 172.225C46.5368 172.225 25.5 141.975 25.5 115.225L19.5 115.225C19.5 144.474 42.4632 178.225 80.5 178.225L80.5 172.225Z" fill="black"/>
</svg>
