<?xml version="1.0" encoding="utf-8" standalone="no"?>
<!DOCTYPE svg PUBLIC "-//W3C//DTD SVG 1.1//EN"
  "http://www.w3.org/Graphics/SVG/1.1/DTD/svg11.dtd">
<svg xmlns:xlink="http://www.w3.org/1999/xlink" width="474.07pt" height="325.88375pt" viewBox="0 0 474.07 325.88375" xmlns="http://www.w3.org/2000/svg" version="1.1">
 <metadata>
  <rdf:RDF xmlns:dc="http://purl.org/dc/elements/1.1/" xmlns:cc="http://creativecommons.org/ns#" xmlns:rdf="http://www.w3.org/1999/02/22-rdf-syntax-ns#">
   <cc:Work>
    <dc:type rdf:resource="http://purl.org/dc/dcmitype/StillImage"/>
    <dc:date>2023-09-06T10:12:23.058201</dc:date>
    <dc:format>image/svg+xml</dc:format>
    <dc:creator>
     <cc:Agent>
      <dc:title>Matplotlib v3.7.1, https://matplotlib.org/</dc:title>
     </cc:Agent>
    </dc:creator>
   </cc:Work>
  </rdf:RDF>
 </metadata>
 <defs>
  <style type="text/css">*{stroke-linejoin: round; stroke-linecap: butt}</style>
 </defs>
 <g id="figure_1">
  <g id="patch_1">
   <path d="M 0 325.88375 
L 474.07 325.88375 
L 474.07 0 
L 0 0 
z
" style="fill: #ffffff"/>
  </g>
  <g id="axes_1">
   <g id="patch_2">
    <path d="M 62.2725 301.037813 
L 452.8725 301.037813 
L 452.8725 23.837812 
L 62.2725 23.837812 
z
" style="fill: #ffffff"/>
   </g>
   <g id="matplotlib.axis_1">
    <g id="xtick_1">
     <g id="line2d_1">
      <path d="M 62.2725 301.037813 
L 62.2725 23.837812 
" clip-path="url(#p5ef631dedd)" style="fill: none; stroke: #b0b0b0; stroke-opacity: 0.2; stroke-width: 0.8; stroke-linecap: square"/>
     </g>
     <g id="line2d_2">
      <defs>
       <path id="m0a122ac1e9" d="M 0 0 
L 0 4 
" style="stroke: #333333; stroke-width: 1.2"/>
      </defs>
      <g>
       <use xlink:href="#m0a122ac1e9" x="62.2725" y="301.037813" style="fill: #333333; stroke: #333333; stroke-width: 1.2"/>
      </g>
     </g>
     <g id="text_1">
      <!-- 0 -->
      <g style="fill: #333333" transform="translate(58.773125 316.396094) scale(0.11 -0.11)">
       <defs>
        <path id="DejaVuSans-30" d="M 2034 4250 
Q 1547 4250 1301 3770 
Q 1056 3291 1056 2328 
Q 1056 1369 1301 889 
Q 1547 409 2034 409 
Q 2525 409 2770 889 
Q 3016 1369 3016 2328 
Q 3016 3291 2770 3770 
Q 2525 4250 2034 4250 
z
M 2034 4750 
Q 2819 4750 3233 4129 
Q 3647 3509 3647 2328 
Q 3647 1150 3233 529 
Q 2819 -91 2034 -91 
Q 1250 -91 836 529 
Q 422 1150 422 2328 
Q 422 3509 836 4129 
Q 1250 4750 2034 4750 
z
" transform="scale(0.015625)"/>
       </defs>
       <use xlink:href="#DejaVuSans-30"/>
      </g>
     </g>
    </g>
    <g id="xtick_2">
     <g id="line2d_3">
      <path d="M 140.3925 301.037813 
L 140.3925 23.837812 
" clip-path="url(#p5ef631dedd)" style="fill: none; stroke: #b0b0b0; stroke-opacity: 0.2; stroke-width: 0.8; stroke-linecap: square"/>
     </g>
     <g id="line2d_4">
      <g>
       <use xlink:href="#m0a122ac1e9" x="140.3925" y="301.037813" style="fill: #333333; stroke: #333333; stroke-width: 1.2"/>
      </g>
     </g>
     <g id="text_2">
      <!-- 200 -->
      <g style="fill: #333333" transform="translate(129.894375 316.396094) scale(0.11 -0.11)">
       <defs>
        <path id="DejaVuSans-32" d="M 1228 531 
L 3431 531 
L 3431 0 
L 469 0 
L 469 531 
Q 828 903 1448 1529 
Q 2069 2156 2228 2338 
Q 2531 2678 2651 2914 
Q 2772 3150 2772 3378 
Q 2772 3750 2511 3984 
Q 2250 4219 1831 4219 
Q 1534 4219 1204 4116 
Q 875 4013 500 3803 
L 500 4441 
Q 881 4594 1212 4672 
Q 1544 4750 1819 4750 
Q 2544 4750 2975 4387 
Q 3406 4025 3406 3419 
Q 3406 3131 3298 2873 
Q 3191 2616 2906 2266 
Q 2828 2175 2409 1742 
Q 1991 1309 1228 531 
z
" transform="scale(0.015625)"/>
       </defs>
       <use xlink:href="#DejaVuSans-32"/>
       <use xlink:href="#DejaVuSans-30" x="63.623047"/>
       <use xlink:href="#DejaVuSans-30" x="127.246094"/>
      </g>
     </g>
    </g>
    <g id="xtick_3">
     <g id="line2d_5">
      <path d="M 218.5125 301.037813 
L 218.5125 23.837812 
" clip-path="url(#p5ef631dedd)" style="fill: none; stroke: #b0b0b0; stroke-opacity: 0.2; stroke-width: 0.8; stroke-linecap: square"/>
     </g>
     <g id="line2d_6">
      <g>
       <use xlink:href="#m0a122ac1e9" x="218.5125" y="301.037813" style="fill: #333333; stroke: #333333; stroke-width: 1.2"/>
      </g>
     </g>
     <g id="text_3">
      <!-- 400 -->
      <g style="fill: #333333" transform="translate(208.014375 316.396094) scale(0.11 -0.11)">
       <defs>
        <path id="DejaVuSans-34" d="M 2419 4116 
L 825 1625 
L 2419 1625 
L 2419 4116 
z
M 2253 4666 
L 3047 4666 
L 3047 1625 
L 3713 1625 
L 3713 1100 
L 3047 1100 
L 3047 0 
L 2419 0 
L 2419 1100 
L 313 1100 
L 313 1709 
L 2253 4666 
z
" transform="scale(0.015625)"/>
       </defs>
       <use xlink:href="#DejaVuSans-34"/>
       <use xlink:href="#DejaVuSans-30" x="63.623047"/>
       <use xlink:href="#DejaVuSans-30" x="127.246094"/>
      </g>
     </g>
    </g>
    <g id="xtick_4">
     <g id="line2d_7">
      <path d="M 296.6325 301.037813 
L 296.6325 23.837812 
" clip-path="url(#p5ef631dedd)" style="fill: none; stroke: #b0b0b0; stroke-opacity: 0.2; stroke-width: 0.8; stroke-linecap: square"/>
     </g>
     <g id="line2d_8">
      <g>
       <use xlink:href="#m0a122ac1e9" x="296.6325" y="301.037813" style="fill: #333333; stroke: #333333; stroke-width: 1.2"/>
      </g>
     </g>
     <g id="text_4">
      <!-- 600 -->
      <g style="fill: #333333" transform="translate(286.134375 316.396094) scale(0.11 -0.11)">
       <defs>
        <path id="DejaVuSans-36" d="M 2113 2584 
Q 1688 2584 1439 2293 
Q 1191 2003 1191 1497 
Q 1191 994 1439 701 
Q 1688 409 2113 409 
Q 2538 409 2786 701 
Q 3034 994 3034 1497 
Q 3034 2003 2786 2293 
Q 2538 2584 2113 2584 
z
M 3366 4563 
L 3366 3988 
Q 3128 4100 2886 4159 
Q 2644 4219 2406 4219 
Q 1781 4219 1451 3797 
Q 1122 3375 1075 2522 
Q 1259 2794 1537 2939 
Q 1816 3084 2150 3084 
Q 2853 3084 3261 2657 
Q 3669 2231 3669 1497 
Q 3669 778 3244 343 
Q 2819 -91 2113 -91 
Q 1303 -91 875 529 
Q 447 1150 447 2328 
Q 447 3434 972 4092 
Q 1497 4750 2381 4750 
Q 2619 4750 2861 4703 
Q 3103 4656 3366 4563 
z
" transform="scale(0.015625)"/>
       </defs>
       <use xlink:href="#DejaVuSans-36"/>
       <use xlink:href="#DejaVuSans-30" x="63.623047"/>
       <use xlink:href="#DejaVuSans-30" x="127.246094"/>
      </g>
     </g>
    </g>
    <g id="xtick_5">
     <g id="line2d_9">
      <path d="M 374.7525 301.037813 
L 374.7525 23.837812 
" clip-path="url(#p5ef631dedd)" style="fill: none; stroke: #b0b0b0; stroke-opacity: 0.2; stroke-width: 0.8; stroke-linecap: square"/>
     </g>
     <g id="line2d_10">
      <g>
       <use xlink:href="#m0a122ac1e9" x="374.7525" y="301.037813" style="fill: #333333; stroke: #333333; stroke-width: 1.2"/>
      </g>
     </g>
     <g id="text_5">
      <!-- 800 -->
      <g style="fill: #333333" transform="translate(364.254375 316.396094) scale(0.11 -0.11)">
       <defs>
        <path id="DejaVuSans-38" d="M 2034 2216 
Q 1584 2216 1326 1975 
Q 1069 1734 1069 1313 
Q 1069 891 1326 650 
Q 1584 409 2034 409 
Q 2484 409 2743 651 
Q 3003 894 3003 1313 
Q 3003 1734 2745 1975 
Q 2488 2216 2034 2216 
z
M 1403 2484 
Q 997 2584 770 2862 
Q 544 3141 544 3541 
Q 544 4100 942 4425 
Q 1341 4750 2034 4750 
Q 2731 4750 3128 4425 
Q 3525 4100 3525 3541 
Q 3525 3141 3298 2862 
Q 3072 2584 2669 2484 
Q 3125 2378 3379 2068 
Q 3634 1759 3634 1313 
Q 3634 634 3220 271 
Q 2806 -91 2034 -91 
Q 1263 -91 848 271 
Q 434 634 434 1313 
Q 434 1759 690 2068 
Q 947 2378 1403 2484 
z
M 1172 3481 
Q 1172 3119 1398 2916 
Q 1625 2713 2034 2713 
Q 2441 2713 2670 2916 
Q 2900 3119 2900 3481 
Q 2900 3844 2670 4047 
Q 2441 4250 2034 4250 
Q 1625 4250 1398 4047 
Q 1172 3844 1172 3481 
z
" transform="scale(0.015625)"/>
       </defs>
       <use xlink:href="#DejaVuSans-38"/>
       <use xlink:href="#DejaVuSans-30" x="63.623047"/>
       <use xlink:href="#DejaVuSans-30" x="127.246094"/>
      </g>
     </g>
    </g>
    <g id="xtick_6">
     <g id="line2d_11">
      <path d="M 452.8725 301.037813 
L 452.8725 23.837812 
" clip-path="url(#p5ef631dedd)" style="fill: none; stroke: #b0b0b0; stroke-opacity: 0.2; stroke-width: 0.8; stroke-linecap: square"/>
     </g>
     <g id="line2d_12">
      <g>
       <use xlink:href="#m0a122ac1e9" x="452.8725" y="301.037813" style="fill: #333333; stroke: #333333; stroke-width: 1.2"/>
      </g>
     </g>
     <g id="text_6">
      <!-- 1000 -->
      <g style="fill: #333333" transform="translate(438.875 316.396094) scale(0.11 -0.11)">
       <defs>
        <path id="DejaVuSans-31" d="M 794 531 
L 1825 531 
L 1825 4091 
L 703 3866 
L 703 4441 
L 1819 4666 
L 2450 4666 
L 2450 531 
L 3481 531 
L 3481 0 
L 794 0 
L 794 531 
z
" transform="scale(0.015625)"/>
       </defs>
       <use xlink:href="#DejaVuSans-31"/>
       <use xlink:href="#DejaVuSans-30" x="63.623047"/>
       <use xlink:href="#DejaVuSans-30" x="127.246094"/>
       <use xlink:href="#DejaVuSans-30" x="190.869141"/>
      </g>
     </g>
    </g>
   </g>
   <g id="matplotlib.axis_2">
    <g id="ytick_1">
     <g id="line2d_13">
      <path d="M 62.2725 293.192529 
L 452.8725 293.192529 
" clip-path="url(#p5ef631dedd)" style="fill: none; stroke: #b0b0b0; stroke-opacity: 0.2; stroke-width: 0.8; stroke-linecap: square"/>
     </g>
     <g id="line2d_14">
      <defs>
       <path id="m1bd9d66e63" d="M 0 0 
L -4 0 
" style="stroke: #333333; stroke-width: 1.2"/>
      </defs>
      <g>
       <use xlink:href="#m1bd9d66e63" x="62.2725" y="293.192529" style="fill: #333333; stroke: #333333; stroke-width: 1.2"/>
      </g>
     </g>
     <g id="text_7">
      <!-- 0.000 -->
      <g style="fill: #333333" transform="translate(23.781562 297.37167) scale(0.11 -0.11)">
       <defs>
        <path id="DejaVuSans-2e" d="M 684 794 
L 1344 794 
L 1344 0 
L 684 0 
L 684 794 
z
" transform="scale(0.015625)"/>
       </defs>
       <use xlink:href="#DejaVuSans-30"/>
       <use xlink:href="#DejaVuSans-2e" x="63.623047"/>
       <use xlink:href="#DejaVuSans-30" x="95.410156"/>
       <use xlink:href="#DejaVuSans-30" x="159.033203"/>
       <use xlink:href="#DejaVuSans-30" x="222.65625"/>
      </g>
     </g>
    </g>
    <g id="ytick_2">
     <g id="line2d_15">
      <path d="M 62.2725 256.742579 
L 452.8725 256.742579 
" clip-path="url(#p5ef631dedd)" style="fill: none; stroke: #b0b0b0; stroke-opacity: 0.2; stroke-width: 0.8; stroke-linecap: square"/>
     </g>
     <g id="line2d_16">
      <g>
       <use xlink:href="#m1bd9d66e63" x="62.2725" y="256.742579" style="fill: #333333; stroke: #333333; stroke-width: 1.2"/>
      </g>
     </g>
     <g id="text_8">
      <!-- 0.005 -->
      <g style="fill: #333333" transform="translate(23.781562 260.92172) scale(0.11 -0.11)">
       <defs>
        <path id="DejaVuSans-35" d="M 691 4666 
L 3169 4666 
L 3169 4134 
L 1269 4134 
L 1269 2991 
Q 1406 3038 1543 3061 
Q 1681 3084 1819 3084 
Q 2600 3084 3056 2656 
Q 3513 2228 3513 1497 
Q 3513 744 3044 326 
Q 2575 -91 1722 -91 
Q 1428 -91 1123 -41 
Q 819 9 494 109 
L 494 744 
Q 775 591 1075 516 
Q 1375 441 1709 441 
Q 2250 441 2565 725 
Q 2881 1009 2881 1497 
Q 2881 1984 2565 2268 
Q 2250 2553 1709 2553 
Q 1456 2553 1204 2497 
Q 953 2441 691 2322 
L 691 4666 
z
" transform="scale(0.015625)"/>
       </defs>
       <use xlink:href="#DejaVuSans-30"/>
       <use xlink:href="#DejaVuSans-2e" x="63.623047"/>
       <use xlink:href="#DejaVuSans-30" x="95.410156"/>
       <use xlink:href="#DejaVuSans-30" x="159.033203"/>
       <use xlink:href="#DejaVuSans-35" x="222.65625"/>
      </g>
     </g>
    </g>
    <g id="ytick_3">
     <g id="line2d_17">
      <path d="M 62.2725 220.292629 
L 452.8725 220.292629 
" clip-path="url(#p5ef631dedd)" style="fill: none; stroke: #b0b0b0; stroke-opacity: 0.2; stroke-width: 0.8; stroke-linecap: square"/>
     </g>
     <g id="line2d_18">
      <g>
       <use xlink:href="#m1bd9d66e63" x="62.2725" y="220.292629" style="fill: #333333; stroke: #333333; stroke-width: 1.2"/>
      </g>
     </g>
     <g id="text_9">
      <!-- 0.010 -->
      <g style="fill: #333333" transform="translate(23.781562 224.471769) scale(0.11 -0.11)">
       <use xlink:href="#DejaVuSans-30"/>
       <use xlink:href="#DejaVuSans-2e" x="63.623047"/>
       <use xlink:href="#DejaVuSans-30" x="95.410156"/>
       <use xlink:href="#DejaVuSans-31" x="159.033203"/>
       <use xlink:href="#DejaVuSans-30" x="222.65625"/>
      </g>
     </g>
    </g>
    <g id="ytick_4">
     <g id="line2d_19">
      <path d="M 62.2725 183.842678 
L 452.8725 183.842678 
" clip-path="url(#p5ef631dedd)" style="fill: none; stroke: #b0b0b0; stroke-opacity: 0.2; stroke-width: 0.8; stroke-linecap: square"/>
     </g>
     <g id="line2d_20">
      <g>
       <use xlink:href="#m1bd9d66e63" x="62.2725" y="183.842678" style="fill: #333333; stroke: #333333; stroke-width: 1.2"/>
      </g>
     </g>
     <g id="text_10">
      <!-- 0.015 -->
      <g style="fill: #333333" transform="translate(23.781562 188.021819) scale(0.11 -0.11)">
       <use xlink:href="#DejaVuSans-30"/>
       <use xlink:href="#DejaVuSans-2e" x="63.623047"/>
       <use xlink:href="#DejaVuSans-30" x="95.410156"/>
       <use xlink:href="#DejaVuSans-31" x="159.033203"/>
       <use xlink:href="#DejaVuSans-35" x="222.65625"/>
      </g>
     </g>
    </g>
    <g id="ytick_5">
     <g id="line2d_21">
      <path d="M 62.2725 147.392728 
L 452.8725 147.392728 
" clip-path="url(#p5ef631dedd)" style="fill: none; stroke: #b0b0b0; stroke-opacity: 0.2; stroke-width: 0.8; stroke-linecap: square"/>
     </g>
     <g id="line2d_22">
      <g>
       <use xlink:href="#m1bd9d66e63" x="62.2725" y="147.392728" style="fill: #333333; stroke: #333333; stroke-width: 1.2"/>
      </g>
     </g>
     <g id="text_11">
      <!-- 0.020 -->
      <g style="fill: #333333" transform="translate(23.781562 151.571868) scale(0.11 -0.11)">
       <use xlink:href="#DejaVuSans-30"/>
       <use xlink:href="#DejaVuSans-2e" x="63.623047"/>
       <use xlink:href="#DejaVuSans-30" x="95.410156"/>
       <use xlink:href="#DejaVuSans-32" x="159.033203"/>
       <use xlink:href="#DejaVuSans-30" x="222.65625"/>
      </g>
     </g>
    </g>
    <g id="ytick_6">
     <g id="line2d_23">
      <path d="M 62.2725 110.942777 
L 452.8725 110.942777 
" clip-path="url(#p5ef631dedd)" style="fill: none; stroke: #b0b0b0; stroke-opacity: 0.2; stroke-width: 0.8; stroke-linecap: square"/>
     </g>
     <g id="line2d_24">
      <g>
       <use xlink:href="#m1bd9d66e63" x="62.2725" y="110.942777" style="fill: #333333; stroke: #333333; stroke-width: 1.2"/>
      </g>
     </g>
     <g id="text_12">
      <!-- 0.025 -->
      <g style="fill: #333333" transform="translate(23.781562 115.121918) scale(0.11 -0.11)">
       <use xlink:href="#DejaVuSans-30"/>
       <use xlink:href="#DejaVuSans-2e" x="63.623047"/>
       <use xlink:href="#DejaVuSans-30" x="95.410156"/>
       <use xlink:href="#DejaVuSans-32" x="159.033203"/>
       <use xlink:href="#DejaVuSans-35" x="222.65625"/>
      </g>
     </g>
    </g>
    <g id="ytick_7">
     <g id="line2d_25">
      <path d="M 62.2725 74.492827 
L 452.8725 74.492827 
" clip-path="url(#p5ef631dedd)" style="fill: none; stroke: #b0b0b0; stroke-opacity: 0.2; stroke-width: 0.8; stroke-linecap: square"/>
     </g>
     <g id="line2d_26">
      <g>
       <use xlink:href="#m1bd9d66e63" x="62.2725" y="74.492827" style="fill: #333333; stroke: #333333; stroke-width: 1.2"/>
      </g>
     </g>
     <g id="text_13">
      <!-- 0.030 -->
      <g style="fill: #333333" transform="translate(23.781562 78.671968) scale(0.11 -0.11)">
       <defs>
        <path id="DejaVuSans-33" d="M 2597 2516 
Q 3050 2419 3304 2112 
Q 3559 1806 3559 1356 
Q 3559 666 3084 287 
Q 2609 -91 1734 -91 
Q 1441 -91 1130 -33 
Q 819 25 488 141 
L 488 750 
Q 750 597 1062 519 
Q 1375 441 1716 441 
Q 2309 441 2620 675 
Q 2931 909 2931 1356 
Q 2931 1769 2642 2001 
Q 2353 2234 1838 2234 
L 1294 2234 
L 1294 2753 
L 1863 2753 
Q 2328 2753 2575 2939 
Q 2822 3125 2822 3475 
Q 2822 3834 2567 4026 
Q 2313 4219 1838 4219 
Q 1578 4219 1281 4162 
Q 984 4106 628 3988 
L 628 4550 
Q 988 4650 1302 4700 
Q 1616 4750 1894 4750 
Q 2613 4750 3031 4423 
Q 3450 4097 3450 3541 
Q 3450 3153 3228 2886 
Q 3006 2619 2597 2516 
z
" transform="scale(0.015625)"/>
       </defs>
       <use xlink:href="#DejaVuSans-30"/>
       <use xlink:href="#DejaVuSans-2e" x="63.623047"/>
       <use xlink:href="#DejaVuSans-30" x="95.410156"/>
       <use xlink:href="#DejaVuSans-33" x="159.033203"/>
       <use xlink:href="#DejaVuSans-30" x="222.65625"/>
      </g>
     </g>
    </g>
    <g id="ytick_8">
     <g id="line2d_27">
      <path d="M 62.2725 38.042877 
L 452.8725 38.042877 
" clip-path="url(#p5ef631dedd)" style="fill: none; stroke: #b0b0b0; stroke-opacity: 0.2; stroke-width: 0.8; stroke-linecap: square"/>
     </g>
     <g id="line2d_28">
      <g>
       <use xlink:href="#m1bd9d66e63" x="62.2725" y="38.042877" style="fill: #333333; stroke: #333333; stroke-width: 1.2"/>
      </g>
     </g>
     <g id="text_14">
      <!-- 0.035 -->
      <g style="fill: #333333" transform="translate(23.781562 42.222017) scale(0.11 -0.11)">
       <use xlink:href="#DejaVuSans-30"/>
       <use xlink:href="#DejaVuSans-2e" x="63.623047"/>
       <use xlink:href="#DejaVuSans-30" x="95.410156"/>
       <use xlink:href="#DejaVuSans-33" x="159.033203"/>
       <use xlink:href="#DejaVuSans-35" x="222.65625"/>
      </g>
     </g>
    </g>
    <g id="text_15">
     <!-- counts/ps -->
     <g style="fill: #333333" transform="translate(17.077969 193.864297) rotate(-90) scale(0.13 -0.13)">
      <defs>
       <path id="DejaVuSans-63" d="M 3122 3366 
L 3122 2828 
Q 2878 2963 2633 3030 
Q 2388 3097 2138 3097 
Q 1578 3097 1268 2742 
Q 959 2388 959 1747 
Q 959 1106 1268 751 
Q 1578 397 2138 397 
Q 2388 397 2633 464 
Q 2878 531 3122 666 
L 3122 134 
Q 2881 22 2623 -34 
Q 2366 -91 2075 -91 
Q 1284 -91 818 406 
Q 353 903 353 1747 
Q 353 2603 823 3093 
Q 1294 3584 2113 3584 
Q 2378 3584 2631 3529 
Q 2884 3475 3122 3366 
z
" transform="scale(0.015625)"/>
       <path id="DejaVuSans-6f" d="M 1959 3097 
Q 1497 3097 1228 2736 
Q 959 2375 959 1747 
Q 959 1119 1226 758 
Q 1494 397 1959 397 
Q 2419 397 2687 759 
Q 2956 1122 2956 1747 
Q 2956 2369 2687 2733 
Q 2419 3097 1959 3097 
z
M 1959 3584 
Q 2709 3584 3137 3096 
Q 3566 2609 3566 1747 
Q 3566 888 3137 398 
Q 2709 -91 1959 -91 
Q 1206 -91 779 398 
Q 353 888 353 1747 
Q 353 2609 779 3096 
Q 1206 3584 1959 3584 
z
" transform="scale(0.015625)"/>
       <path id="DejaVuSans-75" d="M 544 1381 
L 544 3500 
L 1119 3500 
L 1119 1403 
Q 1119 906 1312 657 
Q 1506 409 1894 409 
Q 2359 409 2629 706 
Q 2900 1003 2900 1516 
L 2900 3500 
L 3475 3500 
L 3475 0 
L 2900 0 
L 2900 538 
Q 2691 219 2414 64 
Q 2138 -91 1772 -91 
Q 1169 -91 856 284 
Q 544 659 544 1381 
z
M 1991 3584 
L 1991 3584 
z
" transform="scale(0.015625)"/>
       <path id="DejaVuSans-6e" d="M 3513 2113 
L 3513 0 
L 2938 0 
L 2938 2094 
Q 2938 2591 2744 2837 
Q 2550 3084 2163 3084 
Q 1697 3084 1428 2787 
Q 1159 2491 1159 1978 
L 1159 0 
L 581 0 
L 581 3500 
L 1159 3500 
L 1159 2956 
Q 1366 3272 1645 3428 
Q 1925 3584 2291 3584 
Q 2894 3584 3203 3211 
Q 3513 2838 3513 2113 
z
" transform="scale(0.015625)"/>
       <path id="DejaVuSans-74" d="M 1172 4494 
L 1172 3500 
L 2356 3500 
L 2356 3053 
L 1172 3053 
L 1172 1153 
Q 1172 725 1289 603 
Q 1406 481 1766 481 
L 2356 481 
L 2356 0 
L 1766 0 
Q 1100 0 847 248 
Q 594 497 594 1153 
L 594 3053 
L 172 3053 
L 172 3500 
L 594 3500 
L 594 4494 
L 1172 4494 
z
" transform="scale(0.015625)"/>
       <path id="DejaVuSans-73" d="M 2834 3397 
L 2834 2853 
Q 2591 2978 2328 3040 
Q 2066 3103 1784 3103 
Q 1356 3103 1142 2972 
Q 928 2841 928 2578 
Q 928 2378 1081 2264 
Q 1234 2150 1697 2047 
L 1894 2003 
Q 2506 1872 2764 1633 
Q 3022 1394 3022 966 
Q 3022 478 2636 193 
Q 2250 -91 1575 -91 
Q 1294 -91 989 -36 
Q 684 19 347 128 
L 347 722 
Q 666 556 975 473 
Q 1284 391 1588 391 
Q 1994 391 2212 530 
Q 2431 669 2431 922 
Q 2431 1156 2273 1281 
Q 2116 1406 1581 1522 
L 1381 1569 
Q 847 1681 609 1914 
Q 372 2147 372 2553 
Q 372 3047 722 3315 
Q 1072 3584 1716 3584 
Q 2034 3584 2315 3537 
Q 2597 3491 2834 3397 
z
" transform="scale(0.015625)"/>
       <path id="DejaVuSans-2f" d="M 1625 4666 
L 2156 4666 
L 531 -594 
L 0 -594 
L 1625 4666 
z
" transform="scale(0.015625)"/>
       <path id="DejaVuSans-70" d="M 1159 525 
L 1159 -1331 
L 581 -1331 
L 581 3500 
L 1159 3500 
L 1159 2969 
Q 1341 3281 1617 3432 
Q 1894 3584 2278 3584 
Q 2916 3584 3314 3078 
Q 3713 2572 3713 1747 
Q 3713 922 3314 415 
Q 2916 -91 2278 -91 
Q 1894 -91 1617 61 
Q 1341 213 1159 525 
z
M 3116 1747 
Q 3116 2381 2855 2742 
Q 2594 3103 2138 3103 
Q 1681 3103 1420 2742 
Q 1159 2381 1159 1747 
Q 1159 1113 1420 752 
Q 1681 391 2138 391 
Q 2594 391 2855 752 
Q 3116 1113 3116 1747 
z
" transform="scale(0.015625)"/>
      </defs>
      <use xlink:href="#DejaVuSans-63"/>
      <use xlink:href="#DejaVuSans-6f" x="54.980469"/>
      <use xlink:href="#DejaVuSans-75" x="116.162109"/>
      <use xlink:href="#DejaVuSans-6e" x="179.541016"/>
      <use xlink:href="#DejaVuSans-74" x="242.919922"/>
      <use xlink:href="#DejaVuSans-73" x="282.128906"/>
      <use xlink:href="#DejaVuSans-2f" x="334.228516"/>
      <use xlink:href="#DejaVuSans-70" x="367.919922"/>
      <use xlink:href="#DejaVuSans-73" x="431.396484"/>
     </g>
    </g>
   </g>
   <g id="line2d_29">
    <path d="M -1 293.108235 
L 39.78489 293.141343 
L 63.250222 292.894992 
L 71.071999 292.481359 
L 74.982888 292.102141 
L 78.893777 291.615757 
L 82.804665 290.966882 
L 86.715554 289.994114 
L 88.670998 289.44696 
L 92.581887 287.820307 
L 94.537331 286.731225 
L 96.492775 285.449594 
L 98.44822 283.88197 
L 100.403664 281.940355 
L 102.359108 279.374696 
L 104.314553 276.483838 
L 106.269997 272.948243 
L 108.225441 268.770089 
L 110.180885 263.642693 
L 112.13633 257.849431 
L 114.091774 251.288367 
L 118.002663 235.240966 
L 121.913551 215.699572 
L 125.82444 193.71123 
L 127.779884 182.645288 
L 129.735329 170.792158 
L 133.646217 148.894428 
L 135.601661 138.94327 
L 137.557106 129.766885 
L 139.51255 122.039633 
L 141.467994 115.550012 
L 143.423439 110.019655 
L 145.378883 106.463586 
L 147.334327 105.214845 
L 149.289772 104.710818 
L 151.245216 105.736079 
L 153.20066 108.7903 
L 155.156105 112.437417 
L 157.111549 117.47834 
L 161.022437 129.915654 
L 166.88877 152.250978 
L 170.799659 167.615743 
L 172.755103 175.003855 
L 178.621436 194.463786 
L 182.532325 205.587884 
L 186.443213 215.269603 
L 188.398658 219.323601 
L 190.354102 223.108595 
L 194.264991 230.008146 
L 200.131324 237.902028 
L 202.086768 240.15621 
L 204.042212 242.22394 
L 209.908545 247.710298 
L 215.774878 252.207988 
L 223.596655 257.149152 
L 233.373877 262.103167 
L 243.151098 266.250826 
L 250.972875 269.293284 
L 252.92832 269.741986 
L 256.839208 271.246226 
L 258.794653 271.781836 
L 262.705541 273.087645 
L 278.349096 277.386251 
L 286.170873 279.165592 
L 295.948094 281.281896 
L 317.457982 284.835134 
L 321.36887 285.344607 
L 325.279759 285.855821 
L 329.190648 286.334582 
L 331.146092 286.60511 
L 333.101536 286.742116 
L 335.056981 287.075157 
L 338.967869 287.388595 
L 340.923314 287.649757 
L 344.834202 287.922027 
L 350.700535 288.497063 
L 352.655979 288.596169 
L 356.566868 288.953823 
L 364.388645 289.455019 
L 366.344089 289.632975 
L 368.299534 289.659113 
L 372.210422 289.970808 
L 380.0322 290.368976 
L 413.274753 291.617717 
L 462.16086 292.489636 
L 471.938082 292.582426 
L 475.07 292.617489 
L 475.07 292.617489 
" clip-path="url(#p5ef631dedd)" style="fill: none; stroke: #a5b3cc; stroke-width: 1.8; stroke-linecap: square"/>
   </g>
   <g id="line2d_30">
    <path d="M -1 293.139102 
L 26.09678 292.975367 
L 43.695779 292.456092 
L 47.606668 292.193842 
L 53.473001 291.714646 
L 63.250222 289.978867 
L 67.161111 288.855153 
L 69.116555 288.220218 
L 74.982888 285.619055 
L 78.893777 283.16775 
L 80.849221 281.662203 
L 82.804665 279.895277 
L 84.76011 277.798795 
L 86.715554 275.481229 
L 88.670998 272.674012 
L 90.626442 269.583198 
L 92.581887 265.709988 
L 94.537331 261.407679 
L 96.492775 256.246956 
L 100.403664 243.25835 
L 102.359108 235.150136 
L 104.314553 226.119689 
L 106.269997 216.061365 
L 108.225441 204.820082 
L 110.180885 192.561595 
L 114.091774 165.242198 
L 116.047218 150.689234 
L 119.958107 120.143106 
L 123.868996 90.590437 
L 125.82444 76.378574 
L 127.779884 64.373408 
L 129.735329 53.671002 
L 131.690773 44.629664 
L 133.646217 38.035709 
L 135.601661 33.639304 
L 137.557106 31.683096 
L 139.51255 32.859522 
L 141.467994 35.789805 
L 143.423439 41.137196 
L 145.378883 48.8394 
L 147.334327 58.232294 
L 151.245216 81.192098 
L 161.022437 152.105041 
L 164.933326 178.590637 
L 166.88877 190.849995 
L 168.844215 202.078863 
L 170.799659 212.30839 
L 172.755103 221.834805 
L 176.665992 238.23703 
L 180.57688 250.748836 
L 182.532325 255.852927 
L 184.487769 260.469109 
L 186.443213 264.510037 
L 188.398658 267.994663 
L 190.354102 270.848493 
L 192.309546 273.331599 
L 194.264991 275.500179 
L 198.175879 279.22266 
L 200.131324 280.630625 
L 204.042212 282.936647 
L 205.997656 283.917256 
L 207.953101 284.646287 
L 209.908545 285.499474 
L 215.774878 287.246797 
L 221.641211 288.57308 
L 227.507544 289.521235 
L 229.462988 289.806357 
L 233.373877 290.203871 
L 237.284765 290.603347 
L 252.92832 291.667162 
L 276.393651 292.465459 
L 284.215429 292.593535 
L 295.948094 292.771273 
L 387.853977 293.116947 
L 475.07 293.178936 
L 475.07 293.178936 
" clip-path="url(#p5ef631dedd)" style="fill: none; stroke: #3f60ac; stroke-width: 1.8; stroke-linecap: square"/>
   </g>
   <g id="patch_3">
    <path d="M 62.2725 301.037813 
L 62.2725 23.837812 
" style="fill: none; stroke: #333333; stroke-width: 1.2; stroke-linejoin: miter; stroke-linecap: square"/>
   </g>
   <g id="patch_4">
    <path d="M 62.2725 301.037813 
L 452.8725 301.037813 
" style="fill: none; stroke: #333333; stroke-width: 1.2; stroke-linejoin: miter; stroke-linecap: square"/>
   </g>
   <g id="text_16">
    <!-- 8.4 Mcps -->
    <g style="fill: #333333" transform="translate(226.236562 17.837812) scale(0.14 -0.14)">
     <defs>
      <path id="DejaVuSans-20" transform="scale(0.015625)"/>
      <path id="DejaVuSans-4d" d="M 628 4666 
L 1569 4666 
L 2759 1491 
L 3956 4666 
L 4897 4666 
L 4897 0 
L 4281 0 
L 4281 4097 
L 3078 897 
L 2444 897 
L 1241 4097 
L 1241 0 
L 628 0 
L 628 4666 
z
" transform="scale(0.015625)"/>
     </defs>
     <use xlink:href="#DejaVuSans-38"/>
     <use xlink:href="#DejaVuSans-2e" x="63.623047"/>
     <use xlink:href="#DejaVuSans-34" x="95.410156"/>
     <use xlink:href="#DejaVuSans-20" x="159.033203"/>
     <use xlink:href="#DejaVuSans-4d" x="190.820312"/>
     <use xlink:href="#DejaVuSans-63" x="277.099609"/>
     <use xlink:href="#DejaVuSans-70" x="332.080078"/>
     <use xlink:href="#DejaVuSans-73" x="395.556641"/>
    </g>
   </g>
   <g id="legend_1">
    <g id="line2d_31">
     <path d="M 336.2475 39.555937 
L 348.2475 39.555937 
L 360.2475 39.555937 
" style="fill: none; stroke: #a5b3cc; stroke-width: 1.8; stroke-linecap: square"/>
    </g>
    <g id="text_17">
     <!-- uncorrected -->
     <g style="fill: #333333" transform="translate(369.8475 43.755937) scale(0.12 -0.12)">
      <defs>
       <path id="DejaVuSans-72" d="M 2631 2963 
Q 2534 3019 2420 3045 
Q 2306 3072 2169 3072 
Q 1681 3072 1420 2755 
Q 1159 2438 1159 1844 
L 1159 0 
L 581 0 
L 581 3500 
L 1159 3500 
L 1159 2956 
Q 1341 3275 1631 3429 
Q 1922 3584 2338 3584 
Q 2397 3584 2469 3576 
Q 2541 3569 2628 3553 
L 2631 2963 
z
" transform="scale(0.015625)"/>
       <path id="DejaVuSans-65" d="M 3597 1894 
L 3597 1613 
L 953 1613 
Q 991 1019 1311 708 
Q 1631 397 2203 397 
Q 2534 397 2845 478 
Q 3156 559 3463 722 
L 3463 178 
Q 3153 47 2828 -22 
Q 2503 -91 2169 -91 
Q 1331 -91 842 396 
Q 353 884 353 1716 
Q 353 2575 817 3079 
Q 1281 3584 2069 3584 
Q 2775 3584 3186 3129 
Q 3597 2675 3597 1894 
z
M 3022 2063 
Q 3016 2534 2758 2815 
Q 2500 3097 2075 3097 
Q 1594 3097 1305 2825 
Q 1016 2553 972 2059 
L 3022 2063 
z
" transform="scale(0.015625)"/>
       <path id="DejaVuSans-64" d="M 2906 2969 
L 2906 4863 
L 3481 4863 
L 3481 0 
L 2906 0 
L 2906 525 
Q 2725 213 2448 61 
Q 2172 -91 1784 -91 
Q 1150 -91 751 415 
Q 353 922 353 1747 
Q 353 2572 751 3078 
Q 1150 3584 1784 3584 
Q 2172 3584 2448 3432 
Q 2725 3281 2906 2969 
z
M 947 1747 
Q 947 1113 1208 752 
Q 1469 391 1925 391 
Q 2381 391 2643 752 
Q 2906 1113 2906 1747 
Q 2906 2381 2643 2742 
Q 2381 3103 1925 3103 
Q 1469 3103 1208 2742 
Q 947 2381 947 1747 
z
" transform="scale(0.015625)"/>
      </defs>
      <use xlink:href="#DejaVuSans-75"/>
      <use xlink:href="#DejaVuSans-6e" x="63.378906"/>
      <use xlink:href="#DejaVuSans-63" x="126.757812"/>
      <use xlink:href="#DejaVuSans-6f" x="181.738281"/>
      <use xlink:href="#DejaVuSans-72" x="242.919922"/>
      <use xlink:href="#DejaVuSans-72" x="282.283203"/>
      <use xlink:href="#DejaVuSans-65" x="321.146484"/>
      <use xlink:href="#DejaVuSans-63" x="382.669922"/>
      <use xlink:href="#DejaVuSans-74" x="437.650391"/>
      <use xlink:href="#DejaVuSans-65" x="476.859375"/>
      <use xlink:href="#DejaVuSans-64" x="538.382812"/>
     </g>
    </g>
    <g id="line2d_32">
     <path d="M 336.2475 57.169687 
L 348.2475 57.169687 
L 360.2475 57.169687 
" style="fill: none; stroke: #3f60ac; stroke-width: 1.8; stroke-linecap: square"/>
    </g>
    <g id="text_18">
     <!-- corrected -->
     <g style="fill: #333333" transform="translate(369.8475 61.369687) scale(0.12 -0.12)">
      <use xlink:href="#DejaVuSans-63"/>
      <use xlink:href="#DejaVuSans-6f" x="54.980469"/>
      <use xlink:href="#DejaVuSans-72" x="116.162109"/>
      <use xlink:href="#DejaVuSans-72" x="155.525391"/>
      <use xlink:href="#DejaVuSans-65" x="194.388672"/>
      <use xlink:href="#DejaVuSans-63" x="255.912109"/>
      <use xlink:href="#DejaVuSans-74" x="310.892578"/>
      <use xlink:href="#DejaVuSans-65" x="350.101562"/>
      <use xlink:href="#DejaVuSans-64" x="411.625"/>
     </g>
    </g>
   </g>
  </g>
 </g>
 <defs>
  <clipPath id="p5ef631dedd">
   <rect x="62.2725" y="23.837812" width="390.6" height="277.2"/>
  </clipPath>
 </defs>
</svg>
